{
	"asset":{
		"generator":"Khronos glTF Blender I/O v4.5.48",
		"version":"2.0"
	},
	"scene":0,
	"scenes":[
		{
			"name":"Scene",
			"nodes":[
				0
			]
		}
	],
	"nodes":[
		{
			"mesh":0,
			"name":"D6_Dice_White"
		}
	],
	"materials":[
		{
			"doubleSided":true,
			"name":"Dice_Body_White.002",
			"pbrMetallicRoughness":{
				"metallicFactor":0.10000000149011612,
				"roughnessFactor":0.30000001192092896
			}
		},
		{
			"doubleSided":true,
			"name":"Pip_Material_White.002",
			"pbrMetallicRoughness":{
				"baseColorFactor":[
					0,
					0,
					0,
					1
				],
				"metallicFactor":0,
				"roughnessFactor":0.4000000059604645
			}
		}
	],
	"meshes":[
		{
			"name":"Cube.129",
			"primitives":[
				{
					"attributes":{
						"POSITION":0,
						"NORMAL":1,
						"TEXCOORD_0":2
					},
					"indices":3,
					"material":0
				},
				{
					"attributes":{
						"POSITION":4,
						"NORMAL":5,
						"TEXCOORD_0":6
					},
					"indices":7,
					"material":1
				}
			]
		}
	],
	"accessors":[
		{
			"bufferView":0,
			"componentType":5126,
			"count":638,
			"max":[
				1.0012714862823486,
				1.0032565593719482,
				1.0019856691360474
			],
			"min":[
				-1.0012714862823486,
				-1.0032565593719482,
				-1.0019856691360474
			],
			"type":"VEC3"
		},
		{
			"bufferView":1,
			"componentType":5126,
			"count":638,
			"type":"VEC3"
		},
		{
			"bufferView":2,
			"componentType":5126,
			"count":638,
			"type":"VEC2"
		},
		{
			"bufferView":3,
			"componentType":5123,
			"count":1164,
			"type":"SCALAR"
		},
		{
			"bufferView":4,
			"componentType":5126,
			"count":504,
			"max":[
				0.985823392868042,
				0.9825927019119263,
				0.9823802709579468
			],
			"min":[
				-0.9791765213012695,
				-0.98240727186203,
				-0.9826196432113647
			],
			"type":"VEC3"
		},
		{
			"bufferView":5,
			"componentType":5126,
			"count":504,
			"type":"VEC3"
		},
		{
			"bufferView":6,
			"componentType":5126,
			"count":504,
			"type":"VEC2"
		},
		{
			"bufferView":7,
			"componentType":5123,
			"count":756,
			"type":"SCALAR"
		}
	],
	"bufferViews":[
		{
			"buffer":0,
			"byteLength":7656,
			"byteOffset":0,
			"target":34962
		},
		{
			"buffer":0,
			"byteLength":7656,
			"byteOffset":7656,
			"target":34962
		},
		{
			"buffer":0,
			"byteLength":5104,
			"byteOffset":15312,
			"target":34962
		},
		{
			"buffer":0,
			"byteLength":2328,
			"byteOffset":20416,
			"target":34963
		},
		{
			"buffer":0,
			"byteLength":6048,
			"byteOffset":22744,
			"target":34962
		},
		{
			"buffer":0,
			"byteLength":6048,
			"byteOffset":28792,
			"target":34962
		},
		{
			"buffer":0,
			"byteLength":4032,
			"byteOffset":34840,
			"target":34962
		},
		{
			"buffer":0,
			"byteLength":1512,
			"byteOffset":38872,
			"target":34963
		}
	],
	"buffers":[
		{
			"byteLength":40384,
			"uri":"0_dice_white.bin"
		}
	]
}
