{
	"asset":{
		"generator":"Khronos glTF Blender I/O v4.5.48",
		"version":"2.0"
	},
	"scene":0,
	"scenes":[
		{
			"name":"Scene",
			"nodes":[
				0
			]
		}
	],
	"nodes":[
		{
			"mesh":0,
			"name":"D6_Dice_Black"
		}
	],
	"materials":[
		{
			"doubleSided":true,
			"name":"Dice_Body_Black.002",
			"pbrMetallicRoughness":{
				"baseColorFactor":[
					0,
					0,
					0,
					1
				],
				"metallicFactor":0.10000000149011612,
				"roughnessFactor":0.30000001192092896
			}
		},
		{
			"doubleSided":true,
			"name":"Pip_Material_Black.002",
			"pbrMetallicRoughness":{
				"metallicFactor":0,
				"roughnessFactor":0.4000000059604645
			}
		}
	],
	"meshes":[
		{
			"name":"Cube.388",
			"primitives":[
				{
					"attributes":{
						"POSITION":0,
						"NORMAL":1,
						"TEXCOORD_0":2
					},
					"indices":3,
					"material":0
				},
				{
					"attributes":{
						"POSITION":4,
						"NORMAL":5,
						"TEXCOORD_0":6
					},
					"indices":7,
					"material":1
				}
			]
		}
	],
	"accessors":[
		{
			"bufferView":0,
			"componentType":5126,
			"count":656,
			"max":[
				1.0021586418151855,
				1.0020431280136108,
				1.0016825199127197
			],
			"min":[
				-1.0021586418151855,
				-1.0020431280136108,
				-1.0016825199127197
			],
			"type":"VEC3"
		},
		{
			"bufferView":1,
			"componentType":5126,
			"count":656,
			"type":"VEC3"
		},
		{
			"bufferView":2,
			"componentType":5126,
			"count":656,
			"type":"VEC2"
		},
		{
			"bufferView":3,
			"componentType":5123,
			"count":1170,
			"type":"SCALAR"
		},
		{
			"bufferView":4,
			"componentType":5126,
			"count":504,
			"max":[
				0.9839922785758972,
				0.9810543060302734,
				0.9819977879524231
			],
			"min":[
				-0.9810076355934143,
				-0.9839456677436829,
				-0.9830021262168884
			],
			"type":"VEC3"
		},
		{
			"bufferView":5,
			"componentType":5126,
			"count":504,
			"type":"VEC3"
		},
		{
			"bufferView":6,
			"componentType":5126,
			"count":504,
			"type":"VEC2"
		},
		{
			"bufferView":7,
			"componentType":5123,
			"count":756,
			"type":"SCALAR"
		}
	],
	"bufferViews":[
		{
			"buffer":0,
			"byteLength":7872,
			"byteOffset":0,
			"target":34962
		},
		{
			"buffer":0,
			"byteLength":7872,
			"byteOffset":7872,
			"target":34962
		},
		{
			"buffer":0,
			"byteLength":5248,
			"byteOffset":15744,
			"target":34962
		},
		{
			"buffer":0,
			"byteLength":2340,
			"byteOffset":20992,
			"target":34963
		},
		{
			"buffer":0,
			"byteLength":6048,
			"byteOffset":23332,
			"target":34962
		},
		{
			"buffer":0,
			"byteLength":6048,
			"byteOffset":29380,
			"target":34962
		},
		{
			"buffer":0,
			"byteLength":4032,
			"byteOffset":35428,
			"target":34962
		},
		{
			"buffer":0,
			"byteLength":1512,
			"byteOffset":39460,
			"target":34963
		}
	],
	"buffers":[
		{
			"byteLength":40972,
			"uri":"0_dice_black.bin"
		}
	]
}
