{
	"asset":{
		"generator":"Khronos glTF Blender I/O v4.5.48",
		"version":"2.0"
	},
	"scene":0,
	"scenes":[
		{
			"name":"Scene",
			"nodes":[
				0
			]
		}
	],
	"nodes":[
		{
			"mesh":0,
			"name":"D6_Dice_Green"
		}
	],
	"materials":[
		{
			"doubleSided":true,
			"name":"Dice_Body_Green.001",
			"pbrMetallicRoughness":{
				"baseColorFactor":[
					0,
					1,
					0,
					1
				],
				"metallicFactor":0.10000000149011612,
				"roughnessFactor":0.30000001192092896
			}
		},
		{
			"doubleSided":true,
			"name":"Pip_Material_Green.001",
			"pbrMetallicRoughness":{
				"baseColorFactor":[
					0,
					0,
					0,
					1
				],
				"metallicFactor":0,
				"roughnessFactor":0.4000000059604645
			}
		}
	],
	"meshes":[
		{
			"name":"Cube.086",
			"primitives":[
				{
					"attributes":{
						"POSITION":0,
						"NORMAL":1,
						"TEXCOORD_0":2
					},
					"indices":3,
					"material":0
				},
				{
					"attributes":{
						"POSITION":4,
						"NORMAL":5,
						"TEXCOORD_0":6
					},
					"indices":7,
					"material":1
				}
			]
		}
	],
	"accessors":[
		{
			"bufferView":0,
			"componentType":5126,
			"count":658,
			"max":[
				1.0026702880859375,
				1.0010762214660645,
				1.003645420074463
			],
			"min":[
				-1.0026702880859375,
				-1.0010762214660645,
				-1.003645420074463
			],
			"type":"VEC3"
		},
		{
			"bufferView":1,
			"componentType":5126,
			"count":658,
			"type":"VEC3"
		},
		{
			"bufferView":2,
			"componentType":5126,
			"count":658,
			"type":"VEC2"
		},
		{
			"bufferView":3,
			"componentType":5123,
			"count":1164,
			"type":"SCALAR"
		},
		{
			"bufferView":4,
			"componentType":5126,
			"count":504,
			"max":[
				0.982702910900116,
				0.9832844734191895,
				0.9830628037452698
			],
			"min":[
				-0.9822970032691956,
				-0.9817155003547668,
				-0.9819371104240417
			],
			"type":"VEC3"
		},
		{
			"bufferView":5,
			"componentType":5126,
			"count":504,
			"type":"VEC3"
		},
		{
			"bufferView":6,
			"componentType":5126,
			"count":504,
			"type":"VEC2"
		},
		{
			"bufferView":7,
			"componentType":5123,
			"count":756,
			"type":"SCALAR"
		}
	],
	"bufferViews":[
		{
			"buffer":0,
			"byteLength":7896,
			"byteOffset":0,
			"target":34962
		},
		{
			"buffer":0,
			"byteLength":7896,
			"byteOffset":7896,
			"target":34962
		},
		{
			"buffer":0,
			"byteLength":5264,
			"byteOffset":15792,
			"target":34962
		},
		{
			"buffer":0,
			"byteLength":2328,
			"byteOffset":21056,
			"target":34963
		},
		{
			"buffer":0,
			"byteLength":6048,
			"byteOffset":23384,
			"target":34962
		},
		{
			"buffer":0,
			"byteLength":6048,
			"byteOffset":29432,
			"target":34962
		},
		{
			"buffer":0,
			"byteLength":4032,
			"byteOffset":35480,
			"target":34962
		},
		{
			"buffer":0,
			"byteLength":1512,
			"byteOffset":39512,
			"target":34963
		}
	],
	"buffers":[
		{
			"byteLength":41024,
			"uri":"0_dice_green.bin"
		}
	]
}
