{
	"asset":{
		"generator":"Khronos glTF Blender I/O v4.5.48",
		"version":"2.0"
	},
	"scene":0,
	"scenes":[
		{
			"name":"Scene",
			"nodes":[
				0
			]
		}
	],
	"nodes":[
		{
			"mesh":0,
			"name":"D6_Dice_Blue"
		}
	],
	"materials":[
		{
			"doubleSided":true,
			"name":"Dice_Body_Blue.007",
			"pbrMetallicRoughness":{
				"baseColorFactor":[
					0,
					0,
					1,
					1
				],
				"metallicFactor":0.10000000149011612,
				"roughnessFactor":0.30000001192092896
			}
		},
		{
			"doubleSided":true,
			"name":"Pip_Material_Blue.007",
			"pbrMetallicRoughness":{
				"metallicFactor":0,
				"roughnessFactor":0.4000000059604645
			}
		}
	],
	"meshes":[
		{
			"name":"Cube.017",
			"primitives":[
				{
					"attributes":{
						"POSITION":0,
						"NORMAL":1,
						"TEXCOORD_0":2,
						"TANGENT":3
					},
					"indices":4,
					"material":0
				},
				{
					"attributes":{
						"POSITION":5,
						"NORMAL":6,
						"TEXCOORD_0":7,
						"TANGENT":8
					},
					"indices":9,
					"material":1
				}
			]
		}
	],
	"accessors":[
		{
			"bufferView":0,
			"componentType":5126,
			"count":58874,
			"max":[
				1,
				1,
				1
			],
			"min":[
				-1,
				-1,
				-1
			],
			"type":"VEC3"
		},
		{
			"bufferView":1,
			"componentType":5126,
			"count":58874,
			"type":"VEC3"
		},
		{
			"bufferView":2,
			"componentType":5126,
			"count":58874,
			"type":"VEC2"
		},
		{
			"bufferView":3,
			"componentType":5126,
			"count":58874,
			"type":"VEC4"
		},
		{
			"bufferView":4,
			"componentType":5123,
			"count":255288,
			"type":"SCALAR"
		},
		{
			"bufferView":5,
			"componentType":5126,
			"count":6048,
			"max":[
				1,
				1,
				1
			],
			"min":[
				-1,
				-0.9999999403953552,
				-1
			],
			"type":"VEC3"
		},
		{
			"bufferView":6,
			"componentType":5126,
			"count":6048,
			"type":"VEC3"
		},
		{
			"bufferView":7,
			"componentType":5126,
			"count":6048,
			"type":"VEC2"
		},
		{
			"bufferView":8,
			"componentType":5126,
			"count":6048,
			"type":"VEC4"
		},
		{
			"bufferView":9,
			"componentType":5123,
			"count":11340,
			"type":"SCALAR"
		}
	],
	"bufferViews":[
		{
			"buffer":0,
			"byteLength":706488,
			"byteOffset":0,
			"target":34962
		},
		{
			"buffer":0,
			"byteLength":706488,
			"byteOffset":706488,
			"target":34962
		},
		{
			"buffer":0,
			"byteLength":470992,
			"byteOffset":1412976,
			"target":34962
		},
		{
			"buffer":0,
			"byteLength":941984,
			"byteOffset":1883968,
			"target":34962
		},
		{
			"buffer":0,
			"byteLength":510576,
			"byteOffset":2825952,
			"target":34963
		},
		{
			"buffer":0,
			"byteLength":72576,
			"byteOffset":3336528,
			"target":34962
		},
		{
			"buffer":0,
			"byteLength":72576,
			"byteOffset":3409104,
			"target":34962
		},
		{
			"buffer":0,
			"byteLength":48384,
			"byteOffset":3481680,
			"target":34962
		},
		{
			"buffer":0,
			"byteLength":96768,
			"byteOffset":3530064,
			"target":34962
		},
		{
			"buffer":0,
			"byteLength":22680,
			"byteOffset":3626832,
			"target":34963
		}
	],
	"buffers":[
		{
			"byteLength":3649512,
			"uri":"2_gold_dice_blue.bin"
		}
	]
}
