{
	"asset":{
		"generator":"Khronos glTF Blender I/O v4.5.48",
		"version":"2.0"
	},
	"extensionsUsed":[
		"KHR_materials_clearcoat",
		"KHR_materials_specular"
	],
	"scene":0,
	"scenes":[
		{
			"name":"Scene",
			"nodes":[
				0
			]
		}
	],
	"nodes":[
		{
			"mesh":0,
			"name":"D6_Dice_Red"
		}
	],
	"materials":[
		{
			"doubleSided":true,
			"name":"Dice_Body_Red",
			"pbrMetallicRoughness":{
				"baseColorFactor":[
					1,
					0,
					0,
					1
				],
				"metallicFactor":0.10000000149011612,
				"roughnessFactor":0.30000001192092896
			}
		},
		{
			"doubleSided":true,
			"extensions":{
				"KHR_materials_clearcoat":{
					"clearcoatFactor":1,
					"clearcoatRoughnessFactor":0.019999999552965164
				},
				"KHR_materials_specular":{
					"specularColorFactor":[
						1.7999999523162842,
						1.7999999523162842,
						1.7999999523162842
					]
				}
			},
			"name":"Pip_Material_Red",
			"pbrMetallicRoughness":{
				"baseColorFactor":[
					1,
					0.9520000219345093,
					0,
					1
				],
				"metallicFactor":0.30000001192092896,
				"roughnessFactor":0.009999999776482582
			}
		}
	],
	"meshes":[
		{
			"name":"Cube",
			"primitives":[
				{
					"attributes":{
						"POSITION":0,
						"NORMAL":1,
						"TEXCOORD_0":2
					},
					"indices":3,
					"material":0
				},
				{
					"attributes":{
						"POSITION":4,
						"NORMAL":5,
						"TEXCOORD_0":6
					},
					"indices":7,
					"material":1
				}
			]
		}
	],
	"accessors":[
		{
			"bufferView":0,
			"componentType":5126,
			"count":608,
			"max":[
				1,
				1,
				1
			],
			"min":[
				-1,
				-1,
				-1
			],
			"type":"VEC3"
		},
		{
			"bufferView":1,
			"componentType":5126,
			"count":608,
			"type":"VEC3"
		},
		{
			"bufferView":2,
			"componentType":5126,
			"count":608,
			"type":"VEC2"
		},
		{
			"bufferView":3,
			"componentType":5123,
			"count":1164,
			"type":"SCALAR"
		},
		{
			"bufferView":4,
			"componentType":5126,
			"count":504,
			"max":[
				0.9824999570846558,
				0.9824999570846558,
				0.9824999570846558
			],
			"min":[
				-0.9824999570846558,
				-0.9825000166893005,
				-0.9824999570846558
			],
			"type":"VEC3"
		},
		{
			"bufferView":5,
			"componentType":5126,
			"count":504,
			"type":"VEC3"
		},
		{
			"bufferView":6,
			"componentType":5126,
			"count":504,
			"type":"VEC2"
		},
		{
			"bufferView":7,
			"componentType":5123,
			"count":756,
			"type":"SCALAR"
		}
	],
	"bufferViews":[
		{
			"buffer":0,
			"byteLength":7296,
			"byteOffset":0,
			"target":34962
		},
		{
			"buffer":0,
			"byteLength":7296,
			"byteOffset":7296,
			"target":34962
		},
		{
			"buffer":0,
			"byteLength":4864,
			"byteOffset":14592,
			"target":34962
		},
		{
			"buffer":0,
			"byteLength":2328,
			"byteOffset":19456,
			"target":34963
		},
		{
			"buffer":0,
			"byteLength":6048,
			"byteOffset":21784,
			"target":34962
		},
		{
			"buffer":0,
			"byteLength":6048,
			"byteOffset":27832,
			"target":34962
		},
		{
			"buffer":0,
			"byteLength":4032,
			"byteOffset":33880,
			"target":34962
		},
		{
			"buffer":0,
			"byteLength":1512,
			"byteOffset":37912,
			"target":34963
		}
	],
	"buffers":[
		{
			"byteLength":39424,
			"uri":"2_gold_dice_red.bin"
		}
	]
}
