{
	"asset":{
		"generator":"Khronos glTF Blender I/O v4.5.48",
		"version":"2.0"
	},
	"scene":0,
	"scenes":[
		{
			"name":"Scene",
			"nodes":[
				0
			]
		}
	],
	"nodes":[
		{
			"mesh":0,
			"name":"D6_Dice_White"
		}
	],
	"materials":[
		{
			"doubleSided":true,
			"name":"Dice_Body_White.002",
			"pbrMetallicRoughness":{
				"metallicFactor":0.10000000149011612,
				"roughnessFactor":0.30000001192092896
			}
		},
		{
			"doubleSided":true,
			"name":"Pip_Material_White.002",
			"pbrMetallicRoughness":{
				"baseColorFactor":[
					0,
					0,
					0,
					1
				],
				"metallicFactor":0,
				"roughnessFactor":0.4000000059604645
			}
		}
	],
	"meshes":[
		{
			"name":"Cube.681",
			"primitives":[
				{
					"attributes":{
						"POSITION":0,
						"NORMAL":1,
						"TEXCOORD_0":2
					},
					"indices":3,
					"material":0
				},
				{
					"attributes":{
						"POSITION":4,
						"NORMAL":5,
						"TEXCOORD_0":6
					},
					"indices":7,
					"material":1
				}
			]
		}
	],
	"accessors":[
		{
			"bufferView":0,
			"componentType":5126,
			"count":1766,
			"max":[
				1,
				1,
				1
			],
			"min":[
				-1,
				-1,
				-1
			],
			"type":"VEC3"
		},
		{
			"bufferView":1,
			"componentType":5126,
			"count":1766,
			"type":"VEC3"
		},
		{
			"bufferView":2,
			"componentType":5126,
			"count":1766,
			"type":"VEC2"
		},
		{
			"bufferView":3,
			"componentType":5123,
			"count":3504,
			"type":"SCALAR"
		},
		{
			"bufferView":4,
			"componentType":5126,
			"count":1764,
			"max":[
				0.9975000023841858,
				0.9975000619888306,
				0.9975000619888306
			],
			"min":[
				-0.9975000023841858,
				-0.9975001215934753,
				-0.9975000619888306
			],
			"type":"VEC3"
		},
		{
			"bufferView":5,
			"componentType":5126,
			"count":1764,
			"type":"VEC3"
		},
		{
			"bufferView":6,
			"componentType":5126,
			"count":1764,
			"type":"VEC2"
		},
		{
			"bufferView":7,
			"componentType":5123,
			"count":3276,
			"type":"SCALAR"
		}
	],
	"bufferViews":[
		{
			"buffer":0,
			"byteLength":21192,
			"byteOffset":0,
			"target":34962
		},
		{
			"buffer":0,
			"byteLength":21192,
			"byteOffset":21192,
			"target":34962
		},
		{
			"buffer":0,
			"byteLength":14128,
			"byteOffset":42384,
			"target":34962
		},
		{
			"buffer":0,
			"byteLength":7008,
			"byteOffset":56512,
			"target":34963
		},
		{
			"buffer":0,
			"byteLength":21168,
			"byteOffset":63520,
			"target":34962
		},
		{
			"buffer":0,
			"byteLength":21168,
			"byteOffset":84688,
			"target":34962
		},
		{
			"buffer":0,
			"byteLength":14112,
			"byteOffset":105856,
			"target":34962
		},
		{
			"buffer":0,
			"byteLength":6552,
			"byteOffset":119968,
			"target":34963
		}
	],
	"buffers":[
		{
			"byteLength":126520,
			"uri":"3_multiply_dice_white.bin"
		}
	]
}
