{
	"asset":{
		"generator":"Khronos glTF Blender I/O v4.5.48",
		"version":"2.0"
	},
	"scene":0,
	"scenes":[
		{
			"name":"Scene",
			"nodes":[
				0
			]
		}
	],
	"nodes":[
		{
			"mesh":0,
			"name":"Lucky_Dice_777"
		}
	],
	"materials":[
		{
			"doubleSided":true,
			"name":"Lucky_Grey.002",
			"pbrMetallicRoughness":{
				"baseColorFactor":[
					0.20000000298023224,
					0.20000000298023224,
					0.20000000298023224,
					1
				],
				"metallicFactor":0.5,
				"roughnessFactor":0.5
			}
		},
		{
			"doubleSided":true,
			"name":"Lucky_Gold.002",
			"pbrMetallicRoughness":{
				"baseColorFactor":[
					1,
					0,
					0,
					1
				],
				"roughnessFactor":0.20000000298023224
			}
		}
	],
	"meshes":[
		{
			"name":"Cube",
			"primitives":[
				{
					"attributes":{
						"POSITION":0,
						"NORMAL":1,
						"TEXCOORD_0":2,
						"TANGENT":3
					},
					"indices":4,
					"material":0
				},
				{
					"attributes":{
						"POSITION":5,
						"NORMAL":6,
						"TEXCOORD_0":7,
						"TANGENT":8
					},
					"indices":9,
					"material":1
				}
			]
		}
	],
	"accessors":[
		{
			"bufferView":0,
			"componentType":5126,
			"count":32052,
			"max":[
				1,
				1,
				1
			],
			"min":[
				-1,
				-1,
				-1
			],
			"type":"VEC3"
		},
		{
			"bufferView":1,
			"componentType":5126,
			"count":32052,
			"type":"VEC3"
		},
		{
			"bufferView":2,
			"componentType":5126,
			"count":32052,
			"type":"VEC2"
		},
		{
			"bufferView":3,
			"componentType":5126,
			"count":32052,
			"type":"VEC4"
		},
		{
			"bufferView":4,
			"componentType":5123,
			"count":153852,
			"type":"SCALAR"
		},
		{
			"bufferView":5,
			"componentType":5126,
			"count":1944,
			"max":[
				1,
				1,
				1
			],
			"min":[
				-1,
				-1,
				-1
			],
			"type":"VEC3"
		},
		{
			"bufferView":6,
			"componentType":5126,
			"count":1944,
			"type":"VEC3"
		},
		{
			"bufferView":7,
			"componentType":5126,
			"count":1944,
			"type":"VEC2"
		},
		{
			"bufferView":8,
			"componentType":5126,
			"count":1944,
			"type":"VEC4"
		},
		{
			"bufferView":9,
			"componentType":5123,
			"count":3672,
			"type":"SCALAR"
		}
	],
	"bufferViews":[
		{
			"buffer":0,
			"byteLength":384624,
			"byteOffset":0,
			"target":34962
		},
		{
			"buffer":0,
			"byteLength":384624,
			"byteOffset":384624,
			"target":34962
		},
		{
			"buffer":0,
			"byteLength":256416,
			"byteOffset":769248,
			"target":34962
		},
		{
			"buffer":0,
			"byteLength":512832,
			"byteOffset":1025664,
			"target":34962
		},
		{
			"buffer":0,
			"byteLength":307704,
			"byteOffset":1538496,
			"target":34963
		},
		{
			"buffer":0,
			"byteLength":23328,
			"byteOffset":1846200,
			"target":34962
		},
		{
			"buffer":0,
			"byteLength":23328,
			"byteOffset":1869528,
			"target":34962
		},
		{
			"buffer":0,
			"byteLength":15552,
			"byteOffset":1892856,
			"target":34962
		},
		{
			"buffer":0,
			"byteLength":31104,
			"byteOffset":1908408,
			"target":34962
		},
		{
			"buffer":0,
			"byteLength":7344,
			"byteOffset":1939512,
			"target":34963
		}
	],
	"buffers":[
		{
			"byteLength":1946856,
			"uri":"5_lucky_dice_777_red.bin"
		}
	]
}
