{
	"asset":{
		"generator":"Khronos glTF Blender I/O v4.5.48",
		"version":"2.0"
	},
	"scene":0,
	"scenes":[
		{
			"name":"Scene",
			"nodes":[
				0
			]
		}
	],
	"nodes":[
		{
			"mesh":0,
			"name":"Lucky_Dice_777"
		}
	],
	"materials":[
		{
			"doubleSided":true,
			"name":"Lucky_Grey.003",
			"pbrMetallicRoughness":{
				"baseColorFactor":[
					0.20000000298023224,
					0.20000000298023224,
					0.20000000298023224,
					1
				],
				"metallicFactor":0.5,
				"roughnessFactor":0.5
			}
		},
		{
			"doubleSided":true,
			"name":"Lucky_Gold.003",
			"pbrMetallicRoughness":{
				"baseColorFactor":[
					1,
					0.8399999737739563,
					0,
					1
				],
				"roughnessFactor":0.20000000298023224
			}
		}
	],
	"meshes":[
		{
			"name":"Cube.002",
			"primitives":[
				{
					"attributes":{
						"POSITION":0,
						"NORMAL":1,
						"TEXCOORD_0":2,
						"TANGENT":3
					},
					"indices":4,
					"material":0
				},
				{
					"attributes":{
						"POSITION":5,
						"NORMAL":6,
						"TEXCOORD_0":7,
						"TANGENT":8
					},
					"indices":9,
					"material":1
				}
			]
		}
	],
	"accessors":[
		{
			"bufferView":0,
			"componentType":5126,
			"count":27768,
			"max":[
				1,
				1,
				1
			],
			"min":[
				-1,
				-1,
				-1
			],
			"type":"VEC3"
		},
		{
			"bufferView":1,
			"componentType":5126,
			"count":27768,
			"type":"VEC3"
		},
		{
			"bufferView":2,
			"componentType":5126,
			"count":27768,
			"type":"VEC2"
		},
		{
			"bufferView":3,
			"componentType":5126,
			"count":27768,
			"type":"VEC4"
		},
		{
			"bufferView":4,
			"componentType":5123,
			"count":154044,
			"type":"SCALAR"
		},
		{
			"bufferView":5,
			"componentType":5126,
			"count":1332,
			"max":[
				1,
				1,
				1
			],
			"min":[
				-1,
				-1,
				-1
			],
			"type":"VEC3"
		},
		{
			"bufferView":6,
			"componentType":5126,
			"count":1332,
			"type":"VEC3"
		},
		{
			"bufferView":7,
			"componentType":5126,
			"count":1332,
			"type":"VEC2"
		},
		{
			"bufferView":8,
			"componentType":5126,
			"count":1332,
			"type":"VEC4"
		},
		{
			"bufferView":9,
			"componentType":5123,
			"count":3672,
			"type":"SCALAR"
		}
	],
	"bufferViews":[
		{
			"buffer":0,
			"byteLength":333216,
			"byteOffset":0,
			"target":34962
		},
		{
			"buffer":0,
			"byteLength":333216,
			"byteOffset":333216,
			"target":34962
		},
		{
			"buffer":0,
			"byteLength":222144,
			"byteOffset":666432,
			"target":34962
		},
		{
			"buffer":0,
			"byteLength":444288,
			"byteOffset":888576,
			"target":34962
		},
		{
			"buffer":0,
			"byteLength":308088,
			"byteOffset":1332864,
			"target":34963
		},
		{
			"buffer":0,
			"byteLength":15984,
			"byteOffset":1640952,
			"target":34962
		},
		{
			"buffer":0,
			"byteLength":15984,
			"byteOffset":1656936,
			"target":34962
		},
		{
			"buffer":0,
			"byteLength":10656,
			"byteOffset":1672920,
			"target":34962
		},
		{
			"buffer":0,
			"byteLength":21312,
			"byteOffset":1683576,
			"target":34962
		},
		{
			"buffer":0,
			"byteLength":7344,
			"byteOffset":1704888,
			"target":34963
		}
	],
	"buffers":[
		{
			"byteLength":1712232,
			"uri":"5_lucky_dice_777_v2.bin"
		}
	]
}
