{
	"asset":{
		"generator":"Khronos glTF Blender I/O v4.5.48",
		"version":"2.0"
	},
	"scene":0,
	"scenes":[
		{
			"name":"Scene",
			"nodes":[
				0
			]
		}
	],
	"nodes":[
		{
			"mesh":0,
			"name":"D6_Dice_Red"
		}
	],
	"materials":[
		{
			"doubleSided":true,
			"name":"Dice_Body_Red",
			"pbrMetallicRoughness":{
				"baseColorFactor":[
					1,
					0,
					0,
					1
				],
				"metallicFactor":0.10000000149011612,
				"roughnessFactor":0.30000001192092896
			}
		},
		{
			"doubleSided":true,
			"name":"Pip_Material_Red",
			"pbrMetallicRoughness":{
				"metallicFactor":0,
				"roughnessFactor":0.4000000059604645
			}
		}
	],
	"meshes":[
		{
			"name":"Cube",
			"primitives":[
				{
					"attributes":{
						"POSITION":0,
						"NORMAL":1,
						"TEXCOORD_0":2
					},
					"indices":3,
					"material":0
				},
				{
					"attributes":{
						"POSITION":4,
						"NORMAL":5,
						"TEXCOORD_0":6
					},
					"indices":7,
					"material":1
				}
			]
		}
	],
	"accessors":[
		{
			"bufferView":0,
			"componentType":5126,
			"count":8280,
			"max":[
				1.1318726539611816,
				1.1318726539611816,
				1.1318726539611816
			],
			"min":[
				-1.1318726539611816,
				-1.1318726539611816,
				-1.1318726539611816
			],
			"type":"VEC3"
		},
		{
			"bufferView":1,
			"componentType":5126,
			"count":8280,
			"type":"VEC3"
		},
		{
			"bufferView":2,
			"componentType":5126,
			"count":8280,
			"type":"VEC2"
		},
		{
			"bufferView":3,
			"componentType":5123,
			"count":13050,
			"type":"SCALAR"
		},
		{
			"bufferView":4,
			"componentType":5126,
			"count":504,
			"max":[
				1.0304906368255615,
				1.034509301185608,
				1.030490756034851
			],
			"min":[
				-1.0345094203948975,
				-1.030490756034851,
				-1.034509301185608
			],
			"type":"VEC3"
		},
		{
			"bufferView":5,
			"componentType":5126,
			"count":504,
			"type":"VEC3"
		},
		{
			"bufferView":6,
			"componentType":5126,
			"count":504,
			"type":"VEC2"
		},
		{
			"bufferView":7,
			"componentType":5123,
			"count":756,
			"type":"SCALAR"
		}
	],
	"bufferViews":[
		{
			"buffer":0,
			"byteLength":99360,
			"byteOffset":0,
			"target":34962
		},
		{
			"buffer":0,
			"byteLength":99360,
			"byteOffset":99360,
			"target":34962
		},
		{
			"buffer":0,
			"byteLength":66240,
			"byteOffset":198720,
			"target":34962
		},
		{
			"buffer":0,
			"byteLength":26100,
			"byteOffset":264960,
			"target":34963
		},
		{
			"buffer":0,
			"byteLength":6048,
			"byteOffset":291060,
			"target":34962
		},
		{
			"buffer":0,
			"byteLength":6048,
			"byteOffset":297108,
			"target":34962
		},
		{
			"buffer":0,
			"byteLength":4032,
			"byteOffset":303156,
			"target":34962
		},
		{
			"buffer":0,
			"byteLength":1512,
			"byteOffset":307188,
			"target":34963
		}
	],
	"buffers":[
		{
			"byteLength":308700,
			"uri":"6_growing_dice_red.bin"
		}
	]
}
