{
	"asset":{
		"generator":"Khronos glTF Blender I/O v4.5.48",
		"version":"2.0"
	},
	"scene":0,
	"scenes":[
		{
			"name":"Scene",
			"nodes":[
				0
			]
		}
	],
	"nodes":[
		{
			"mesh":0,
			"name":"D6_Dice_White"
		}
	],
	"materials":[
		{
			"doubleSided":true,
			"name":"Dice_Body_White.001",
			"pbrMetallicRoughness":{
				"metallicFactor":0.10000000149011612,
				"roughnessFactor":0.30000001192092896
			}
		},
		{
			"doubleSided":true,
			"name":"Pip_Material_White.001",
			"pbrMetallicRoughness":{
				"baseColorFactor":[
					0,
					0,
					0,
					1
				],
				"metallicFactor":0,
				"roughnessFactor":0.4000000059604645
			}
		}
	],
	"meshes":[
		{
			"name":"Cube.129",
			"primitives":[
				{
					"attributes":{
						"POSITION":0,
						"NORMAL":1,
						"TEXCOORD_0":2
					},
					"indices":3,
					"material":0
				},
				{
					"attributes":{
						"POSITION":4,
						"NORMAL":5,
						"TEXCOORD_0":6
					},
					"indices":7,
					"material":1
				}
			]
		}
	],
	"accessors":[
		{
			"bufferView":0,
			"componentType":5126,
			"count":1142,
			"max":[
				1.0704493522644043,
				1.0782740116119385,
				1.0655274391174316
			],
			"min":[
				-1.0704493522644043,
				-1.0782740116119385,
				-1.0655274391174316
			],
			"type":"VEC3"
		},
		{
			"bufferView":1,
			"componentType":5126,
			"count":1142,
			"type":"VEC3"
		},
		{
			"bufferView":2,
			"componentType":5126,
			"count":1142,
			"type":"VEC2"
		},
		{
			"bufferView":3,
			"componentType":5123,
			"count":2076,
			"type":"SCALAR"
		},
		{
			"bufferView":4,
			"componentType":5126,
			"count":2016,
			"max":[
				1.0337409973144531,
				0.9912150502204895,
				1.0347661972045898
			],
			"min":[
				-1.0100300312042236,
				-1.0519883632659912,
				-1.0104117393493652
			],
			"type":"VEC3"
		},
		{
			"bufferView":5,
			"componentType":5126,
			"count":2016,
			"type":"VEC3"
		},
		{
			"bufferView":6,
			"componentType":5126,
			"count":2016,
			"type":"VEC2"
		},
		{
			"bufferView":7,
			"componentType":5123,
			"count":3024,
			"type":"SCALAR"
		}
	],
	"bufferViews":[
		{
			"buffer":0,
			"byteLength":13704,
			"byteOffset":0,
			"target":34962
		},
		{
			"buffer":0,
			"byteLength":13704,
			"byteOffset":13704,
			"target":34962
		},
		{
			"buffer":0,
			"byteLength":9136,
			"byteOffset":27408,
			"target":34962
		},
		{
			"buffer":0,
			"byteLength":4152,
			"byteOffset":36544,
			"target":34963
		},
		{
			"buffer":0,
			"byteLength":24192,
			"byteOffset":40696,
			"target":34962
		},
		{
			"buffer":0,
			"byteLength":24192,
			"byteOffset":64888,
			"target":34962
		},
		{
			"buffer":0,
			"byteLength":16128,
			"byteOffset":89080,
			"target":34962
		},
		{
			"buffer":0,
			"byteLength":6048,
			"byteOffset":105208,
			"target":34963
		}
	],
	"buffers":[
		{
			"byteLength":111256,
			"uri":"7_dice_white_ugly.bin"
		}
	]
}
