{
	"asset":{
		"generator":"Khronos glTF Blender I/O v4.5.48",
		"version":"2.0"
	},
	"scene":0,
	"scenes":[
		{
			"name":"Scene",
			"nodes":[
				0
			]
		}
	],
	"nodes":[
		{
			"mesh":0,
			"name":"D6_Dice_Black"
		}
	],
	"materials":[
		{
			"doubleSided":true,
			"name":"Dice_Body_Black.001",
			"pbrMetallicRoughness":{
				"baseColorFactor":[
					0,
					0,
					0,
					1
				],
				"metallicFactor":0.10000000149011612,
				"roughnessFactor":0.30000001192092896
			}
		},
		{
			"doubleSided":true,
			"name":"Pip_Material_Black.001",
			"pbrMetallicRoughness":{
				"metallicFactor":0,
				"roughnessFactor":0.4000000059604645
			}
		}
	],
	"meshes":[
		{
			"name":"Cube.173",
			"primitives":[
				{
					"attributes":{
						"POSITION":0,
						"NORMAL":1,
						"TEXCOORD_0":2
					},
					"indices":3,
					"material":0
				},
				{
					"attributes":{
						"POSITION":4,
						"NORMAL":5,
						"TEXCOORD_0":6
					},
					"indices":7,
					"material":1
				}
			]
		}
	],
	"accessors":[
		{
			"bufferView":0,
			"componentType":5126,
			"count":1060,
			"max":[
				1.1034693717956543,
				1.0904483795166016,
				1.056137204170227
			],
			"min":[
				-1.1034693717956543,
				-1.0904483795166016,
				-1.056137204170227
			],
			"type":"VEC3"
		},
		{
			"bufferView":1,
			"componentType":5126,
			"count":1060,
			"type":"VEC3"
		},
		{
			"bufferView":2,
			"componentType":5126,
			"count":1060,
			"type":"VEC2"
		},
		{
			"bufferView":3,
			"componentType":5123,
			"count":1920,
			"type":"SCALAR"
		},
		{
			"bufferView":4,
			"componentType":5126,
			"count":2016,
			"max":[
				1.0125095844268799,
				1.046266794204712,
				1.0235774517059326
			],
			"min":[
				-1.0329428911209106,
				-0.9995450377464294,
				-1.018753170967102
			],
			"type":"VEC3"
		},
		{
			"bufferView":5,
			"componentType":5126,
			"count":2016,
			"type":"VEC3"
		},
		{
			"bufferView":6,
			"componentType":5126,
			"count":2016,
			"type":"VEC2"
		},
		{
			"bufferView":7,
			"componentType":5123,
			"count":3024,
			"type":"SCALAR"
		}
	],
	"bufferViews":[
		{
			"buffer":0,
			"byteLength":12720,
			"byteOffset":0,
			"target":34962
		},
		{
			"buffer":0,
			"byteLength":12720,
			"byteOffset":12720,
			"target":34962
		},
		{
			"buffer":0,
			"byteLength":8480,
			"byteOffset":25440,
			"target":34962
		},
		{
			"buffer":0,
			"byteLength":3840,
			"byteOffset":33920,
			"target":34963
		},
		{
			"buffer":0,
			"byteLength":24192,
			"byteOffset":37760,
			"target":34962
		},
		{
			"buffer":0,
			"byteLength":24192,
			"byteOffset":61952,
			"target":34962
		},
		{
			"buffer":0,
			"byteLength":16128,
			"byteOffset":86144,
			"target":34962
		},
		{
			"buffer":0,
			"byteLength":6048,
			"byteOffset":102272,
			"target":34963
		}
	],
	"buffers":[
		{
			"byteLength":108320,
			"uri":"7_dice_black_ugly.bin"
		}
	]
}
