{
	"asset":{
		"generator":"Khronos glTF Blender I/O v4.5.48",
		"version":"2.0"
	},
	"scene":0,
	"scenes":[
		{
			"name":"Scene",
			"nodes":[
				0
			]
		}
	],
	"nodes":[
		{
			"mesh":0,
			"name":"D6_Dice_Blue"
		}
	],
	"materials":[
		{
			"doubleSided":true,
			"name":"Dice_Body_Blue.001",
			"pbrMetallicRoughness":{
				"baseColorFactor":[
					0,
					0,
					1,
					1
				],
				"metallicFactor":0.10000000149011612,
				"roughnessFactor":0.30000001192092896
			}
		},
		{
			"doubleSided":true,
			"name":"Pip_Material_Blue.001",
			"pbrMetallicRoughness":{
				"metallicFactor":0,
				"roughnessFactor":0.4000000059604645
			}
		}
	],
	"meshes":[
		{
			"name":"Cube.043",
			"primitives":[
				{
					"attributes":{
						"POSITION":0,
						"NORMAL":1,
						"TEXCOORD_0":2
					},
					"indices":3,
					"material":0
				},
				{
					"attributes":{
						"POSITION":4,
						"NORMAL":5,
						"TEXCOORD_0":6
					},
					"indices":7,
					"material":1
				}
			]
		}
	],
	"accessors":[
		{
			"bufferView":0,
			"componentType":5126,
			"count":1070,
			"max":[
				1.069360613822937,
				1.0893001556396484,
				1.0834465026855469
			],
			"min":[
				-1.069360613822937,
				-1.0893001556396484,
				-1.0834465026855469
			],
			"type":"VEC3"
		},
		{
			"bufferView":1,
			"componentType":5126,
			"count":1070,
			"type":"VEC3"
		},
		{
			"bufferView":2,
			"componentType":5126,
			"count":1070,
			"type":"VEC2"
		},
		{
			"bufferView":3,
			"componentType":5123,
			"count":1908,
			"type":"SCALAR"
		},
		{
			"bufferView":4,
			"componentType":5126,
			"count":2016,
			"max":[
				1.018844723701477,
				1.0070794820785522,
				1.0245835781097412
			],
			"min":[
				-1.0151537656784058,
				-1.032348394393921,
				-1.0276987552642822
			],
			"type":"VEC3"
		},
		{
			"bufferView":5,
			"componentType":5126,
			"count":2016,
			"type":"VEC3"
		},
		{
			"bufferView":6,
			"componentType":5126,
			"count":2016,
			"type":"VEC2"
		},
		{
			"bufferView":7,
			"componentType":5123,
			"count":3024,
			"type":"SCALAR"
		}
	],
	"bufferViews":[
		{
			"buffer":0,
			"byteLength":12840,
			"byteOffset":0,
			"target":34962
		},
		{
			"buffer":0,
			"byteLength":12840,
			"byteOffset":12840,
			"target":34962
		},
		{
			"buffer":0,
			"byteLength":8560,
			"byteOffset":25680,
			"target":34962
		},
		{
			"buffer":0,
			"byteLength":3816,
			"byteOffset":34240,
			"target":34963
		},
		{
			"buffer":0,
			"byteLength":24192,
			"byteOffset":38056,
			"target":34962
		},
		{
			"buffer":0,
			"byteLength":24192,
			"byteOffset":62248,
			"target":34962
		},
		{
			"buffer":0,
			"byteLength":16128,
			"byteOffset":86440,
			"target":34962
		},
		{
			"buffer":0,
			"byteLength":6048,
			"byteOffset":102568,
			"target":34963
		}
	],
	"buffers":[
		{
			"byteLength":108616,
			"uri":"7_dice_blue_ugly.bin"
		}
	]
}
