{
	"asset":{
		"generator":"Khronos glTF Blender I/O v4.5.48",
		"version":"2.0"
	},
	"scene":0,
	"scenes":[
		{
			"name":"Scene",
			"nodes":[
				0
			]
		}
	],
	"nodes":[
		{
			"mesh":0,
			"name":"D6_Dice_Red"
		}
	],
	"materials":[
		{
			"doubleSided":true,
			"name":"Dice_Body_Red.001",
			"pbrMetallicRoughness":{
				"baseColorFactor":[
					1,
					0,
					0,
					1
				],
				"metallicFactor":0.10000000149011612,
				"roughnessFactor":0.30000001192092896
			}
		},
		{
			"doubleSided":true,
			"name":"Pip_Material_Red.001",
			"pbrMetallicRoughness":{
				"metallicFactor":0,
				"roughnessFactor":0.4000000059604645
			}
		}
	],
	"meshes":[
		{
			"name":"Cube",
			"primitives":[
				{
					"attributes":{
						"POSITION":0,
						"NORMAL":1,
						"TEXCOORD_0":2
					},
					"indices":3,
					"material":0
				},
				{
					"attributes":{
						"POSITION":4,
						"NORMAL":5,
						"TEXCOORD_0":6
					},
					"indices":7,
					"material":1
				}
			]
		}
	],
	"accessors":[
		{
			"bufferView":0,
			"componentType":5126,
			"count":1144,
			"max":[
				1.0766336917877197,
				1.0830096006393433,
				1.0612094402313232
			],
			"min":[
				-1.0766336917877197,
				-1.0830096006393433,
				-1.0612094402313232
			],
			"type":"VEC3"
		},
		{
			"bufferView":1,
			"componentType":5126,
			"count":1144,
			"type":"VEC3"
		},
		{
			"bufferView":2,
			"componentType":5126,
			"count":1144,
			"type":"VEC2"
		},
		{
			"bufferView":3,
			"componentType":5123,
			"count":2082,
			"type":"SCALAR"
		},
		{
			"bufferView":4,
			"componentType":5126,
			"count":2016,
			"max":[
				1.035022258758545,
				1.0061661005020142,
				1.0149407386779785
			],
			"min":[
				-0.9953466057777405,
				-1.0397247076034546,
				-1.0206129550933838
			],
			"type":"VEC3"
		},
		{
			"bufferView":5,
			"componentType":5126,
			"count":2016,
			"type":"VEC3"
		},
		{
			"bufferView":6,
			"componentType":5126,
			"count":2016,
			"type":"VEC2"
		},
		{
			"bufferView":7,
			"componentType":5123,
			"count":3024,
			"type":"SCALAR"
		}
	],
	"bufferViews":[
		{
			"buffer":0,
			"byteLength":13728,
			"byteOffset":0,
			"target":34962
		},
		{
			"buffer":0,
			"byteLength":13728,
			"byteOffset":13728,
			"target":34962
		},
		{
			"buffer":0,
			"byteLength":9152,
			"byteOffset":27456,
			"target":34962
		},
		{
			"buffer":0,
			"byteLength":4164,
			"byteOffset":36608,
			"target":34963
		},
		{
			"buffer":0,
			"byteLength":24192,
			"byteOffset":40772,
			"target":34962
		},
		{
			"buffer":0,
			"byteLength":24192,
			"byteOffset":64964,
			"target":34962
		},
		{
			"buffer":0,
			"byteLength":16128,
			"byteOffset":89156,
			"target":34962
		},
		{
			"buffer":0,
			"byteLength":6048,
			"byteOffset":105284,
			"target":34963
		}
	],
	"buffers":[
		{
			"byteLength":111332,
			"uri":"7_dice_red_ugly.bin"
		}
	]
}
