{
	"asset":{
		"generator":"Khronos glTF Blender I/O v4.5.48",
		"version":"2.0"
	},
	"scene":0,
	"scenes":[
		{
			"name":"Scene",
			"nodes":[
				0
			]
		}
	],
	"nodes":[
		{
			"mesh":0,
			"name":"D6_Dice_Blue"
		}
	],
	"materials":[
		{
			"doubleSided":true,
			"name":"Dice_Body_Blue.001",
			"pbrMetallicRoughness":{
				"baseColorFactor":[
					0,
					0,
					1,
					1
				],
				"metallicFactor":0.10000000149011612,
				"roughnessFactor":0.30000001192092896
			}
		},
		{
			"doubleSided":true,
			"name":"Pip_Material_Blue.001",
			"pbrMetallicRoughness":{
				"metallicFactor":0,
				"roughnessFactor":0.4000000059604645
			}
		}
	],
	"meshes":[
		{
			"name":"Cube.043",
			"primitives":[
				{
					"attributes":{
						"POSITION":0,
						"NORMAL":1,
						"TEXCOORD_0":2
					},
					"indices":3,
					"material":0
				},
				{
					"attributes":{
						"POSITION":4,
						"NORMAL":5,
						"TEXCOORD_0":6
					},
					"indices":7,
					"material":1
				}
			]
		}
	],
	"accessors":[
		{
			"bufferView":0,
			"componentType":5126,
			"count":1112,
			"max":[
				1.092561960220337,
				1.0899431705474854,
				1.0607680082321167
			],
			"min":[
				-1.092561960220337,
				-1.0899431705474854,
				-1.0607680082321167
			],
			"type":"VEC3"
		},
		{
			"bufferView":1,
			"componentType":5126,
			"count":1112,
			"type":"VEC3"
		},
		{
			"bufferView":2,
			"componentType":5126,
			"count":1112,
			"type":"VEC2"
		},
		{
			"bufferView":3,
			"componentType":5123,
			"count":2028,
			"type":"SCALAR"
		},
		{
			"bufferView":4,
			"componentType":5126,
			"count":2016,
			"max":[
				1.0197324752807617,
				1.0334253311157227,
				1.0285406112670898
			],
			"min":[
				-1.0364418029785156,
				-1.0065581798553467,
				-1.0102285146713257
			],
			"type":"VEC3"
		},
		{
			"bufferView":5,
			"componentType":5126,
			"count":2016,
			"type":"VEC3"
		},
		{
			"bufferView":6,
			"componentType":5126,
			"count":2016,
			"type":"VEC2"
		},
		{
			"bufferView":7,
			"componentType":5123,
			"count":3024,
			"type":"SCALAR"
		}
	],
	"bufferViews":[
		{
			"buffer":0,
			"byteLength":13344,
			"byteOffset":0,
			"target":34962
		},
		{
			"buffer":0,
			"byteLength":13344,
			"byteOffset":13344,
			"target":34962
		},
		{
			"buffer":0,
			"byteLength":8896,
			"byteOffset":26688,
			"target":34962
		},
		{
			"buffer":0,
			"byteLength":4056,
			"byteOffset":35584,
			"target":34963
		},
		{
			"buffer":0,
			"byteLength":24192,
			"byteOffset":39640,
			"target":34962
		},
		{
			"buffer":0,
			"byteLength":24192,
			"byteOffset":63832,
			"target":34962
		},
		{
			"buffer":0,
			"byteLength":16128,
			"byteOffset":88024,
			"target":34962
		},
		{
			"buffer":0,
			"byteLength":6048,
			"byteOffset":104152,
			"target":34963
		}
	],
	"buffers":[
		{
			"byteLength":110200,
			"uri":"7_ugly_dice_blue.bin"
		}
	]
}
