{
	"asset":{
		"generator":"Khronos glTF Blender I/O v4.5.48",
		"version":"2.0"
	},
	"scene":0,
	"scenes":[
		{
			"name":"Scene",
			"nodes":[
				0
			]
		}
	],
	"nodes":[
		{
			"mesh":0,
			"name":"D6_Dice_White"
		}
	],
	"materials":[
		{
			"doubleSided":true,
			"name":"Dice_Body_White.001",
			"pbrMetallicRoughness":{
				"metallicFactor":0.10000000149011612,
				"roughnessFactor":0.30000001192092896
			}
		},
		{
			"doubleSided":true,
			"name":"Pip_Material_White.001",
			"pbrMetallicRoughness":{
				"baseColorFactor":[
					0,
					0,
					0,
					1
				],
				"metallicFactor":0,
				"roughnessFactor":0.4000000059604645
			}
		}
	],
	"meshes":[
		{
			"name":"Cube.129",
			"primitives":[
				{
					"attributes":{
						"POSITION":0,
						"NORMAL":1,
						"TEXCOORD_0":2
					},
					"indices":3,
					"material":0
				},
				{
					"attributes":{
						"POSITION":4,
						"NORMAL":5,
						"TEXCOORD_0":6
					},
					"indices":7,
					"material":1
				}
			]
		}
	],
	"accessors":[
		{
			"bufferView":0,
			"componentType":5126,
			"count":1042,
			"max":[
				1.0955934524536133,
				1.0826910734176636,
				1.0698739290237427
			],
			"min":[
				-1.0955934524536133,
				-1.0826910734176636,
				-1.0698739290237427
			],
			"type":"VEC3"
		},
		{
			"bufferView":1,
			"componentType":5126,
			"count":1042,
			"type":"VEC3"
		},
		{
			"bufferView":2,
			"componentType":5126,
			"count":1042,
			"type":"VEC2"
		},
		{
			"bufferView":3,
			"componentType":5123,
			"count":1848,
			"type":"SCALAR"
		},
		{
			"bufferView":4,
			"componentType":5126,
			"count":2016,
			"max":[
				1.0061367750167847,
				0.9975652694702148,
				1.0003197193145752
			],
			"min":[
				-1.0398846864700317,
				-1.0291858911514282,
				-1.044873833656311
			],
			"type":"VEC3"
		},
		{
			"bufferView":5,
			"componentType":5126,
			"count":2016,
			"type":"VEC3"
		},
		{
			"bufferView":6,
			"componentType":5126,
			"count":2016,
			"type":"VEC2"
		},
		{
			"bufferView":7,
			"componentType":5123,
			"count":3024,
			"type":"SCALAR"
		}
	],
	"bufferViews":[
		{
			"buffer":0,
			"byteLength":12504,
			"byteOffset":0,
			"target":34962
		},
		{
			"buffer":0,
			"byteLength":12504,
			"byteOffset":12504,
			"target":34962
		},
		{
			"buffer":0,
			"byteLength":8336,
			"byteOffset":25008,
			"target":34962
		},
		{
			"buffer":0,
			"byteLength":3696,
			"byteOffset":33344,
			"target":34963
		},
		{
			"buffer":0,
			"byteLength":24192,
			"byteOffset":37040,
			"target":34962
		},
		{
			"buffer":0,
			"byteLength":24192,
			"byteOffset":61232,
			"target":34962
		},
		{
			"buffer":0,
			"byteLength":16128,
			"byteOffset":85424,
			"target":34962
		},
		{
			"buffer":0,
			"byteLength":6048,
			"byteOffset":101552,
			"target":34963
		}
	],
	"buffers":[
		{
			"byteLength":107600,
			"uri":"7_ugly_dice_white.bin"
		}
	]
}
