{
	"asset":{
		"generator":"Khronos glTF Blender I/O v4.5.48",
		"version":"2.0"
	},
	"scene":0,
	"scenes":[
		{
			"name":"Scene",
			"nodes":[
				0
			]
		}
	],
	"nodes":[
		{
			"mesh":0,
			"name":"D6_Dice_Black"
		}
	],
	"materials":[
		{
			"doubleSided":true,
			"name":"Dice_Body_Black",
			"pbrMetallicRoughness":{
				"baseColorFactor":[
					0,
					0,
					0,
					1
				],
				"metallicFactor":0.10000000149011612,
				"roughnessFactor":0.30000001192092896
			}
		},
		{
			"doubleSided":true,
			"name":"Pip_Material_Black",
			"pbrMetallicRoughness":{
				"metallicFactor":0,
				"roughnessFactor":0.4000000059604645
			}
		}
	],
	"meshes":[
		{
			"name":"Cube.173",
			"primitives":[
				{
					"attributes":{
						"POSITION":0,
						"NORMAL":1,
						"TEXCOORD_0":2
					},
					"indices":3,
					"material":0
				},
				{
					"attributes":{
						"POSITION":4,
						"NORMAL":5,
						"TEXCOORD_0":6
					},
					"indices":7,
					"material":1
				}
			]
		}
	],
	"accessors":[
		{
			"bufferView":0,
			"componentType":5126,
			"count":1026,
			"max":[
				1.1173096895217896,
				1.0763626098632812,
				1.1241923570632935
			],
			"min":[
				-1.1173096895217896,
				-1.0763626098632812,
				-1.1241923570632935
			],
			"type":"VEC3"
		},
		{
			"bufferView":1,
			"componentType":5126,
			"count":1026,
			"type":"VEC3"
		},
		{
			"bufferView":2,
			"componentType":5126,
			"count":1026,
			"type":"VEC2"
		},
		{
			"bufferView":3,
			"componentType":5123,
			"count":1800,
			"type":"SCALAR"
		},
		{
			"bufferView":4,
			"componentType":5126,
			"count":2016,
			"max":[
				1.0328965187072754,
				0.9797434210777283,
				1.017872929573059
			],
			"min":[
				-1.0064836740493774,
				-1.0529942512512207,
				-1.0244059562683105
			],
			"type":"VEC3"
		},
		{
			"bufferView":5,
			"componentType":5126,
			"count":2016,
			"type":"VEC3"
		},
		{
			"bufferView":6,
			"componentType":5126,
			"count":2016,
			"type":"VEC2"
		},
		{
			"bufferView":7,
			"componentType":5123,
			"count":3024,
			"type":"SCALAR"
		}
	],
	"bufferViews":[
		{
			"buffer":0,
			"byteLength":12312,
			"byteOffset":0,
			"target":34962
		},
		{
			"buffer":0,
			"byteLength":12312,
			"byteOffset":12312,
			"target":34962
		},
		{
			"buffer":0,
			"byteLength":8208,
			"byteOffset":24624,
			"target":34962
		},
		{
			"buffer":0,
			"byteLength":3600,
			"byteOffset":32832,
			"target":34963
		},
		{
			"buffer":0,
			"byteLength":24192,
			"byteOffset":36432,
			"target":34962
		},
		{
			"buffer":0,
			"byteLength":24192,
			"byteOffset":60624,
			"target":34962
		},
		{
			"buffer":0,
			"byteLength":16128,
			"byteOffset":84816,
			"target":34962
		},
		{
			"buffer":0,
			"byteLength":6048,
			"byteOffset":100944,
			"target":34963
		}
	],
	"buffers":[
		{
			"byteLength":106992,
			"uri":"7_ugly_dice_black.bin"
		}
	]
}
