{
	"asset":{
		"generator":"Khronos glTF Blender I/O v4.5.48",
		"version":"2.0"
	},
	"scene":0,
	"scenes":[
		{
			"name":"Scene",
			"nodes":[
				0
			]
		}
	],
	"nodes":[
		{
			"mesh":0,
			"name":"Glass_Prism_Dice"
		}
	],
	"materials":[
		{
			"doubleSided":true,
			"name":"Glass_Dice_Material.005"
		},
		{
			"doubleSided":true,
			"name":"Pip_Material.005",
			"pbrMetallicRoughness":{
				"metallicFactor":0,
				"roughnessFactor":0.20000000298023224
			}
		}
	],
	"meshes":[
		{
			"name":"Cube.216",
			"primitives":[
				{
					"attributes":{
						"POSITION":0,
						"NORMAL":1,
						"TEXCOORD_0":2
					},
					"indices":3,
					"material":0
				},
				{
					"attributes":{
						"POSITION":4,
						"NORMAL":5,
						"TEXCOORD_0":6
					},
					"indices":7,
					"material":1
				}
			]
		}
	],
	"accessors":[
		{
			"bufferView":0,
			"componentType":5126,
			"count":654,
			"max":[
				1.0029993057250977,
				1.0016040802001953,
				1.0021700859069824
			],
			"min":[
				-1.0029993057250977,
				-1.0016040802001953,
				-1.0021700859069824
			],
			"type":"VEC3"
		},
		{
			"bufferView":1,
			"componentType":5126,
			"count":654,
			"type":"VEC3"
		},
		{
			"bufferView":2,
			"componentType":5126,
			"count":654,
			"type":"VEC2"
		},
		{
			"bufferView":3,
			"componentType":5123,
			"count":1164,
			"type":"SCALAR"
		},
		{
			"bufferView":4,
			"componentType":5126,
			"count":504,
			"max":[
				0.9831514954566956,
				0.9829986691474915,
				0.9835609793663025
			],
			"min":[
				-0.981848418712616,
				-0.9820013046264648,
				-0.981438934803009
			],
			"type":"VEC3"
		},
		{
			"bufferView":5,
			"componentType":5126,
			"count":504,
			"type":"VEC3"
		},
		{
			"bufferView":6,
			"componentType":5126,
			"count":504,
			"type":"VEC2"
		},
		{
			"bufferView":7,
			"componentType":5123,
			"count":756,
			"type":"SCALAR"
		}
	],
	"bufferViews":[
		{
			"buffer":0,
			"byteLength":7848,
			"byteOffset":0,
			"target":34962
		},
		{
			"buffer":0,
			"byteLength":7848,
			"byteOffset":7848,
			"target":34962
		},
		{
			"buffer":0,
			"byteLength":5232,
			"byteOffset":15696,
			"target":34962
		},
		{
			"buffer":0,
			"byteLength":2328,
			"byteOffset":20928,
			"target":34963
		},
		{
			"buffer":0,
			"byteLength":6048,
			"byteOffset":23256,
			"target":34962
		},
		{
			"buffer":0,
			"byteLength":6048,
			"byteOffset":29304,
			"target":34962
		},
		{
			"buffer":0,
			"byteLength":4032,
			"byteOffset":35352,
			"target":34962
		},
		{
			"buffer":0,
			"byteLength":1512,
			"byteOffset":39384,
			"target":34963
		}
	],
	"buffers":[
		{
			"byteLength":40896,
			"uri":"8_dice_prism.bin"
		}
	]
}
