{
	"asset":{
		"generator":"Khronos glTF Blender I/O v4.5.48",
		"version":"2.0"
	},
	"extensionsUsed":[
		"KHR_materials_transmission",
		"KHR_materials_ior"
	],
	"scene":0,
	"scenes":[
		{
			"name":"Scene",
			"nodes":[
				0
			]
		}
	],
	"nodes":[
		{
			"mesh":0,
			"name":"Glass_Prism_Dice"
		}
	],
	"materials":[
		{
			"alphaMode":"BLEND",
			"doubleSided":true,
			"extensions":{
				"KHR_materials_transmission":{
					"transmissionFactor":0.5
				},
				"KHR_materials_ior":{
					"ior":1.4500000476837158
				}
			},
			"name":"Prism_Dice_Material.042",
			"pbrMetallicRoughness":{
				"baseColorFactor":[
					0.30000001192092896,
					0.5,
					0.699999988079071,
					0.5
				],
				"metallicFactor":0,
				"roughnessFactor":0.5
			}
		},
		{
			"alphaMode":"MASK",
			"doubleSided":true,
			"extensions":{
				"KHR_materials_transmission":{
					"transmissionFactor":0.949999988079071
				},
				"KHR_materials_ior":{
					"ior":1.4500000476837158
				}
			},
			"name":"Pip_Interior_Material.030",
			"pbrMetallicRoughness":{
				"baseColorFactor":[
					0.30000001192092896,
					0.5,
					0.699999988079071,
					0
				],
				"metallicFactor":0,
				"roughnessFactor":0.5
			}
		},
		{
			"name":"Pip_White_Material.027",
			"pbrMetallicRoughness":{
				"baseColorFactor":[
					0.30000001192092896,
					0.5,
					0.699999988079071,
					1
				],
				"metallicFactor":0,
				"roughnessFactor":0.20000000298023224
			}
		}
	],
	"meshes":[
		{
			"name":"Cube.193",
			"primitives":[
				{
					"attributes":{
						"POSITION":0,
						"NORMAL":1,
						"TEXCOORD_0":2
					},
					"indices":3,
					"material":0
				},
				{
					"attributes":{
						"POSITION":4,
						"NORMAL":5,
						"TEXCOORD_0":6
					},
					"indices":7,
					"material":1
				},
				{
					"attributes":{
						"POSITION":8,
						"NORMAL":9,
						"TEXCOORD_0":10
					},
					"indices":11,
					"material":2
				}
			]
		}
	],
	"accessors":[
		{
			"bufferView":0,
			"componentType":5126,
			"count":654,
			"max":[
				1.0028419494628906,
				1.0011053085327148,
				1.001393437385559
			],
			"min":[
				-1.0031566619873047,
				-1.0021027326583862,
				-1.0029468536376953
			],
			"type":"VEC3"
		},
		{
			"bufferView":1,
			"componentType":5126,
			"count":654,
			"type":"VEC3"
		},
		{
			"bufferView":2,
			"componentType":5126,
			"count":654,
			"type":"VEC2"
		},
		{
			"bufferView":3,
			"componentType":5123,
			"count":1164,
			"type":"SCALAR"
		},
		{
			"bufferView":4,
			"componentType":5126,
			"count":504,
			"max":[
				0.9829941391944885,
				0.9824999570846558,
				0.9827842712402344
			],
			"min":[
				-0.982005774974823,
				-0.9825000166893005,
				-0.9822156429290771
			],
			"type":"VEC3"
		},
		{
			"bufferView":5,
			"componentType":5126,
			"count":504,
			"type":"VEC3"
		},
		{
			"bufferView":6,
			"componentType":5126,
			"count":504,
			"type":"VEC2"
		},
		{
			"bufferView":7,
			"componentType":5123,
			"count":756,
			"type":"SCALAR"
		},
		{
			"bufferView":8,
			"componentType":5126,
			"count":504,
			"max":[
				1.0031566619873047,
				1.0026625394821167,
				1.0029468536376953
			],
			"min":[
				-1.0021684169769287,
				-1.0026625394821167,
				-1.002378225326538
			],
			"type":"VEC3"
		},
		{
			"bufferView":9,
			"componentType":5126,
			"count":504,
			"type":"VEC3"
		},
		{
			"bufferView":10,
			"componentType":5126,
			"count":504,
			"type":"VEC2"
		},
		{
			"bufferView":11,
			"componentType":5123,
			"count":756,
			"type":"SCALAR"
		}
	],
	"bufferViews":[
		{
			"buffer":0,
			"byteLength":7848,
			"byteOffset":0,
			"target":34962
		},
		{
			"buffer":0,
			"byteLength":7848,
			"byteOffset":7848,
			"target":34962
		},
		{
			"buffer":0,
			"byteLength":5232,
			"byteOffset":15696,
			"target":34962
		},
		{
			"buffer":0,
			"byteLength":2328,
			"byteOffset":20928,
			"target":34963
		},
		{
			"buffer":0,
			"byteLength":6048,
			"byteOffset":23256,
			"target":34962
		},
		{
			"buffer":0,
			"byteLength":6048,
			"byteOffset":29304,
			"target":34962
		},
		{
			"buffer":0,
			"byteLength":4032,
			"byteOffset":35352,
			"target":34962
		},
		{
			"buffer":0,
			"byteLength":1512,
			"byteOffset":39384,
			"target":34963
		},
		{
			"buffer":0,
			"byteLength":6048,
			"byteOffset":40896,
			"target":34962
		},
		{
			"buffer":0,
			"byteLength":6048,
			"byteOffset":46944,
			"target":34962
		},
		{
			"buffer":0,
			"byteLength":4032,
			"byteOffset":52992,
			"target":34962
		},
		{
			"buffer":0,
			"byteLength":1512,
			"byteOffset":57024,
			"target":34963
		}
	],
	"buffers":[
		{
			"byteLength":58536,
			"uri":"glass_prism_dice.bin"
		}
	]
}
