{
	"asset":{
		"generator":"Khronos glTF Blender I/O v4.5.48",
		"version":"2.0"
	},
	"scene":0,
	"scenes":[
		{
			"name":"Scene",
			"nodes":[
				0
			]
		}
	],
	"nodes":[
		{
			"mesh":0,
			"name":"D6_Dice_Green"
		}
	],
	"materials":[
		{
			"doubleSided":true,
			"name":"Dice_Body_Green.002",
			"pbrMetallicRoughness":{
				"baseColorFactor":[
					0,
					0.800000011920929,
					0.20000000298023224,
					1
				],
				"metallicFactor":0.10000000149011612,
				"roughnessFactor":0.30000001192092896
			}
		},
		{
			"doubleSided":true,
			"name":"Pip_Material_Green.002",
			"pbrMetallicRoughness":{
				"baseColorFactor":[
					0,
					0,
					0,
					1
				],
				"metallicFactor":0,
				"roughnessFactor":0.4000000059604645
			}
		}
	],
	"meshes":[
		{
			"name":"Cube.086",
			"primitives":[
				{
					"attributes":{
						"POSITION":0,
						"NORMAL":1,
						"TEXCOORD_0":2
					},
					"indices":3,
					"material":0
				},
				{
					"attributes":{
						"POSITION":4,
						"NORMAL":5,
						"TEXCOORD_0":6
					},
					"indices":7,
					"material":1
				}
			]
		}
	],
	"accessors":[
		{
			"bufferView":0,
			"componentType":5126,
			"count":12093,
			"max":[
				1.078611135482788,
				1.1240291595458984,
				1.1240291595458984
			],
			"min":[
				-0.9214522838592529,
				-1.1240291595458984,
				-1.1240291595458984
			],
			"type":"VEC3"
		},
		{
			"bufferView":1,
			"componentType":5126,
			"count":12093,
			"type":"VEC3"
		},
		{
			"bufferView":2,
			"componentType":5126,
			"count":12093,
			"type":"VEC2"
		},
		{
			"bufferView":3,
			"componentType":5123,
			"count":21186,
			"type":"SCALAR"
		},
		{
			"bufferView":4,
			"componentType":5126,
			"count":32256,
			"max":[
				0.8358332514762878,
				0.9572222232818604,
				0.9572221636772156
			],
			"min":[
				-1.078611135482788,
				-0.9572222828865051,
				-0.9572222828865051
			],
			"type":"VEC3"
		},
		{
			"bufferView":5,
			"componentType":5126,
			"count":32256,
			"type":"VEC3"
		},
		{
			"bufferView":6,
			"componentType":5126,
			"count":32256,
			"type":"VEC2"
		},
		{
			"bufferView":7,
			"componentType":5123,
			"count":48384,
			"type":"SCALAR"
		}
	],
	"bufferViews":[
		{
			"buffer":0,
			"byteLength":145116,
			"byteOffset":0,
			"target":34962
		},
		{
			"buffer":0,
			"byteLength":145116,
			"byteOffset":145116,
			"target":34962
		},
		{
			"buffer":0,
			"byteLength":96744,
			"byteOffset":290232,
			"target":34962
		},
		{
			"buffer":0,
			"byteLength":42372,
			"byteOffset":386976,
			"target":34963
		},
		{
			"buffer":0,
			"byteLength":387072,
			"byteOffset":429348,
			"target":34962
		},
		{
			"buffer":0,
			"byteLength":387072,
			"byteOffset":816420,
			"target":34962
		},
		{
			"buffer":0,
			"byteLength":258048,
			"byteOffset":1203492,
			"target":34962
		},
		{
			"buffer":0,
			"byteLength":96768,
			"byteOffset":1461540,
			"target":34963
		}
	],
	"buffers":[
		{
			"byteLength":1558308,
			"uri":"8_growing_dice_green.bin"
		}
	]
}
