{
	"asset":{
		"generator":"Khronos glTF Blender I/O v4.5.48",
		"version":"2.0"
	},
	"extensionsUsed":[
		"KHR_materials_specular"
	],
	"scene":0,
	"scenes":[
		{
			"name":"Scene",
			"nodes":[
				0
			]
		}
	],
	"nodes":[
		{
			"mesh":0,
			"name":"Cup",
			"translation":[
				0,
				2.25,
				0
			]
		}
	],
	"materials":[
		{
			"doubleSided":true,
			"extensions":{
				"KHR_materials_specular":{
					"specularFactor":0.4000000059604645
				}
			},
			"name":"Pixel_Color_0.142",
			"pbrMetallicRoughness":{
				"baseColorFactor":[
					0,
					0,
					0,
					1
				],
				"metallicFactor":0,
				"roughnessFactor":0.8500000238418579
			}
		},
		{
			"doubleSided":true,
			"extensions":{
				"KHR_materials_specular":{
					"specularFactor":0.4000000059604645
				}
			},
			"name":"Pixel_Color_1.142",
			"pbrMetallicRoughness":{
				"baseColorFactor":[
					0.01568627543747425,
					0.01568627543747425,
					0.0784313753247261,
					1
				],
				"metallicFactor":0,
				"roughnessFactor":0.8500000238418579
			}
		},
		{
			"doubleSided":true,
			"extensions":{
				"KHR_materials_specular":{
					"specularFactor":0.4000000059604645
				}
			},
			"name":"Pixel_Color_2.142",
			"pbrMetallicRoughness":{
				"baseColorFactor":[
					0.019607843831181526,
					0.019607843831181526,
					0.11764705926179886,
					1
				],
				"metallicFactor":0,
				"roughnessFactor":0.8500000238418579
			}
		},
		{
			"doubleSided":true,
			"extensions":{
				"KHR_materials_specular":{
					"specularFactor":0.4000000059604645
				}
			},
			"name":"Pixel_Color_3.142",
			"pbrMetallicRoughness":{
				"baseColorFactor":[
					0.03921568766236305,
					0.03921568766236305,
					0.1568627506494522,
					1
				],
				"metallicFactor":0,
				"roughnessFactor":0.8500000238418579
			}
		},
		{
			"doubleSided":true,
			"extensions":{
				"KHR_materials_specular":{
					"specularFactor":0.20000000298023224
				}
			},
			"name":"Cup_Inner_Orange.143",
			"pbrMetallicRoughness":{
				"baseColorFactor":[
					0.3921568691730499,
					0.007843137718737125,
					0.007843137718737125,
					1
				],
				"metallicFactor":0,
				"roughnessFactor":0.10000000149011612
			}
		}
	],
	"meshes":[
		{
			"name":"Cylinder.579",
			"primitives":[
				{
					"attributes":{
						"POSITION":0,
						"NORMAL":1,
						"TEXCOORD_0":2
					},
					"indices":3,
					"material":0
				},
				{
					"attributes":{
						"POSITION":4,
						"NORMAL":5,
						"TEXCOORD_0":6
					},
					"indices":7,
					"material":1
				},
				{
					"attributes":{
						"POSITION":8,
						"NORMAL":9,
						"TEXCOORD_0":10
					},
					"indices":11,
					"material":2
				},
				{
					"attributes":{
						"POSITION":12,
						"NORMAL":13,
						"TEXCOORD_0":14
					},
					"indices":15,
					"material":3
				},
				{
					"attributes":{
						"POSITION":16,
						"NORMAL":17,
						"TEXCOORD_0":18
					},
					"indices":19,
					"material":4
				}
			]
		}
	],
	"accessors":[
		{
			"bufferView":0,
			"componentType":5126,
			"count":169,
			"max":[
				3.9922537803649902,
				0.0719180777668953,
				3.985517978668213
			],
			"min":[
				-4.038372993469238,
				-2.3092570304870605,
				-4.0410308837890625
			],
			"type":"VEC3"
		},
		{
			"bufferView":1,
			"componentType":5126,
			"count":169,
			"type":"VEC3"
		},
		{
			"bufferView":2,
			"componentType":5126,
			"count":169,
			"type":"VEC2"
		},
		{
			"bufferView":3,
			"componentType":5123,
			"count":279,
			"type":"SCALAR"
		},
		{
			"bufferView":4,
			"componentType":5126,
			"count":121,
			"max":[
				4.01580810546875,
				2.198458433151245,
				3.985517978668213
			],
			"min":[
				-4.054347515106201,
				-2.307349920272827,
				-4.0410308837890625
			],
			"type":"VEC3"
		},
		{
			"bufferView":5,
			"componentType":5126,
			"count":121,
			"type":"VEC3"
		},
		{
			"bufferView":6,
			"componentType":5126,
			"count":121,
			"type":"VEC2"
		},
		{
			"bufferView":7,
			"componentType":5123,
			"count":183,
			"type":"SCALAR"
		},
		{
			"bufferView":8,
			"componentType":5126,
			"count":191,
			"max":[
				4.318395137786865,
				3.279405117034912,
				4.297065258026123
			],
			"min":[
				-4.281564235687256,
				-1.1705057621002197,
				-4.0410308837890625
			],
			"type":"VEC3"
		},
		{
			"bufferView":9,
			"componentType":5126,
			"count":191,
			"type":"VEC3"
		},
		{
			"bufferView":10,
			"componentType":5126,
			"count":191,
			"type":"VEC2"
		},
		{
			"bufferView":11,
			"componentType":5123,
			"count":285,
			"type":"SCALAR"
		},
		{
			"bufferView":12,
			"componentType":5126,
			"count":715,
			"max":[
				4.321463584899902,
				4.324856758117676,
				4.297065258026123
			],
			"min":[
				-4.282713413238525,
				-0.04654589295387268,
				-4.336952209472656
			],
			"type":"VEC3"
		},
		{
			"bufferView":13,
			"componentType":5126,
			"count":715,
			"type":"VEC3"
		},
		{
			"bufferView":14,
			"componentType":5126,
			"count":715,
			"type":"VEC2"
		},
		{
			"bufferView":15,
			"componentType":5123,
			"count":1203,
			"type":"SCALAR"
		},
		{
			"bufferView":16,
			"componentType":5126,
			"count":400,
			"max":[
				3.6600444316864014,
				4.324856758117676,
				3.6415891647338867
			],
			"min":[
				-3.6346843242645264,
				-1.3036625385284424,
				-3.6376733779907227
			],
			"type":"VEC3"
		},
		{
			"bufferView":17,
			"componentType":5126,
			"count":400,
			"type":"VEC3"
		},
		{
			"bufferView":18,
			"componentType":5126,
			"count":400,
			"type":"VEC2"
		},
		{
			"bufferView":19,
			"componentType":5123,
			"count":618,
			"type":"SCALAR"
		}
	],
	"bufferViews":[
		{
			"buffer":0,
			"byteLength":2028,
			"byteOffset":0,
			"target":34962
		},
		{
			"buffer":0,
			"byteLength":2028,
			"byteOffset":2028,
			"target":34962
		},
		{
			"buffer":0,
			"byteLength":1352,
			"byteOffset":4056,
			"target":34962
		},
		{
			"buffer":0,
			"byteLength":558,
			"byteOffset":5408,
			"target":34963
		},
		{
			"buffer":0,
			"byteLength":1452,
			"byteOffset":5968,
			"target":34962
		},
		{
			"buffer":0,
			"byteLength":1452,
			"byteOffset":7420,
			"target":34962
		},
		{
			"buffer":0,
			"byteLength":968,
			"byteOffset":8872,
			"target":34962
		},
		{
			"buffer":0,
			"byteLength":366,
			"byteOffset":9840,
			"target":34963
		},
		{
			"buffer":0,
			"byteLength":2292,
			"byteOffset":10208,
			"target":34962
		},
		{
			"buffer":0,
			"byteLength":2292,
			"byteOffset":12500,
			"target":34962
		},
		{
			"buffer":0,
			"byteLength":1528,
			"byteOffset":14792,
			"target":34962
		},
		{
			"buffer":0,
			"byteLength":570,
			"byteOffset":16320,
			"target":34963
		},
		{
			"buffer":0,
			"byteLength":8580,
			"byteOffset":16892,
			"target":34962
		},
		{
			"buffer":0,
			"byteLength":8580,
			"byteOffset":25472,
			"target":34962
		},
		{
			"buffer":0,
			"byteLength":5720,
			"byteOffset":34052,
			"target":34962
		},
		{
			"buffer":0,
			"byteLength":2406,
			"byteOffset":39772,
			"target":34963
		},
		{
			"buffer":0,
			"byteLength":4800,
			"byteOffset":42180,
			"target":34962
		},
		{
			"buffer":0,
			"byteLength":4800,
			"byteOffset":46980,
			"target":34962
		},
		{
			"buffer":0,
			"byteLength":3200,
			"byteOffset":51780,
			"target":34962
		},
		{
			"buffer":0,
			"byteLength":1236,
			"byteOffset":54980,
			"target":34963
		}
	],
	"buffers":[
		{
			"byteLength":56216,
			"uri":"cup.bin"
		}
	]
}
