{
	"asset":{
		"generator":"Khronos glTF Blender I/O v4.5.48",
		"version":"2.0"
	},
	"extensionsUsed":[
		"KHR_materials_specular"
	],
	"scene":0,
	"scenes":[
		{
			"name":"Scene",
			"nodes":[
				0
			]
		}
	],
	"nodes":[
		{
			"mesh":0,
			"name":"Cup",
			"translation":[
				0,
				2.299999952316284,
				0
			]
		}
	],
	"materials":[
		{
			"doubleSided":true,
			"extensions":{
				"KHR_materials_specular":{
					"specularFactor":0.4000000059604645
				}
			},
			"name":"Pixel_Color_0.012",
			"pbrMetallicRoughness":{
				"baseColorFactor":[
					0,
					0,
					0,
					1
				],
				"metallicFactor":0,
				"roughnessFactor":0.8500000238418579
			}
		},
		{
			"doubleSided":true,
			"extensions":{
				"KHR_materials_specular":{
					"specularFactor":0.4000000059604645
				}
			},
			"name":"Pixel_Color_1.012",
			"pbrMetallicRoughness":{
				"baseColorFactor":[
					0.0058823530562222,
					0.0058823530562222,
					0.007843137718737125,
					1
				],
				"metallicFactor":0,
				"roughnessFactor":0.8500000238418579
			}
		},
		{
			"doubleSided":true,
			"extensions":{
				"KHR_materials_specular":{
					"specularFactor":0.4000000059604645
				}
			},
			"name":"Pixel_Color_2.012",
			"pbrMetallicRoughness":{
				"baseColorFactor":[
					0.0117647061124444,
					0.0117647061124444,
					0.01568627543747425,
					1
				],
				"metallicFactor":0,
				"roughnessFactor":0.8500000238418579
			}
		},
		{
			"doubleSided":true,
			"extensions":{
				"KHR_materials_specular":{
					"specularFactor":0.4000000059604645
				}
			},
			"name":"Pixel_Color_3.012",
			"pbrMetallicRoughness":{
				"baseColorFactor":[
					0.019607843831181526,
					0.019607843831181526,
					0.0235294122248888,
					1
				],
				"metallicFactor":0,
				"roughnessFactor":0.8500000238418579
			}
		},
		{
			"doubleSided":true,
			"extensions":{
				"KHR_materials_specular":{
					"specularFactor":0.20000000298023224
				}
			},
			"name":"Cup_Inner_Orange.012",
			"pbrMetallicRoughness":{
				"baseColorFactor":[
					0.3921568691730499,
					0.007843137718737125,
					0.007843137718737125,
					1
				],
				"metallicFactor":0,
				"roughnessFactor":0.10000000149011612
			}
		}
	],
	"meshes":[
		{
			"name":"Cylinder.032",
			"primitives":[
				{
					"attributes":{
						"POSITION":0,
						"NORMAL":1,
						"TEXCOORD_0":2
					},
					"indices":3,
					"material":0
				},
				{
					"attributes":{
						"POSITION":4,
						"NORMAL":5,
						"TEXCOORD_0":6
					},
					"indices":7,
					"material":1
				},
				{
					"attributes":{
						"POSITION":8,
						"NORMAL":9,
						"TEXCOORD_0":10
					},
					"indices":11,
					"material":2
				},
				{
					"attributes":{
						"POSITION":12,
						"NORMAL":13,
						"TEXCOORD_0":14
					},
					"indices":15,
					"material":3
				},
				{
					"attributes":{
						"POSITION":16,
						"NORMAL":17,
						"TEXCOORD_0":18
					},
					"indices":19,
					"material":4
				}
			]
		}
	],
	"accessors":[
		{
			"bufferView":0,
			"componentType":5126,
			"count":597,
			"max":[
				4.219429016113281,
				1.166325569152832,
				4.224722862243652
			],
			"min":[
				-4.223184108734131,
				-2.3173491954803467,
				-4.212682723999023
			],
			"type":"VEC3"
		},
		{
			"bufferView":1,
			"componentType":5126,
			"count":597,
			"type":"VEC3"
		},
		{
			"bufferView":2,
			"componentType":5126,
			"count":597,
			"type":"VEC2"
		},
		{
			"bufferView":3,
			"componentType":5123,
			"count":945,
			"type":"SCALAR"
		},
		{
			"bufferView":4,
			"componentType":5126,
			"count":428,
			"max":[
				4.2227630615234375,
				2.3187060356140137,
				4.224722862243652
			],
			"min":[
				-4.224433422088623,
				-2.3154640197753906,
				-4.212682723999023
			],
			"type":"VEC3"
		},
		{
			"bufferView":5,
			"componentType":5126,
			"count":428,
			"type":"VEC3"
		},
		{
			"bufferView":6,
			"componentType":5126,
			"count":428,
			"type":"VEC2"
		},
		{
			"bufferView":7,
			"componentType":5123,
			"count":654,
			"type":"SCALAR"
		},
		{
			"bufferView":8,
			"componentType":5126,
			"count":508,
			"max":[
				4.50166130065918,
				3.4249863624572754,
				4.512404441833496
			],
			"min":[
				-4.513047695159912,
				-1.1634305715560913,
				-4.497416019439697
			],
			"type":"VEC3"
		},
		{
			"bufferView":9,
			"componentType":5126,
			"count":508,
			"type":"VEC3"
		},
		{
			"bufferView":10,
			"componentType":5126,
			"count":508,
			"type":"VEC2"
		},
		{
			"bufferView":11,
			"componentType":5123,
			"count":786,
			"type":"SCALAR"
		},
		{
			"bufferView":12,
			"componentType":5126,
			"count":1326,
			"max":[
				4.503524303436279,
				4.52541971206665,
				4.527872562408447
			],
			"min":[
				-4.522477626800537,
				-0.022748230025172234,
				-4.497444152832031
			],
			"type":"VEC3"
		},
		{
			"bufferView":13,
			"componentType":5126,
			"count":1326,
			"type":"VEC3"
		},
		{
			"bufferView":14,
			"componentType":5126,
			"count":1326,
			"type":"VEC2"
		},
		{
			"bufferView":15,
			"componentType":5123,
			"count":2238,
			"type":"SCALAR"
		},
		{
			"bufferView":16,
			"componentType":5126,
			"count":801,
			"max":[
				3.772721767425537,
				4.52541971206665,
				3.773552179336548
			],
			"min":[
				-3.7743754386901855,
				-1.3270010948181152,
				-3.772085189819336
			],
			"type":"VEC3"
		},
		{
			"bufferView":17,
			"componentType":5126,
			"count":801,
			"type":"VEC3"
		},
		{
			"bufferView":18,
			"componentType":5126,
			"count":801,
			"type":"VEC2"
		},
		{
			"bufferView":19,
			"componentType":5123,
			"count":1245,
			"type":"SCALAR"
		}
	],
	"bufferViews":[
		{
			"buffer":0,
			"byteLength":7164,
			"byteOffset":0,
			"target":34962
		},
		{
			"buffer":0,
			"byteLength":7164,
			"byteOffset":7164,
			"target":34962
		},
		{
			"buffer":0,
			"byteLength":4776,
			"byteOffset":14328,
			"target":34962
		},
		{
			"buffer":0,
			"byteLength":1890,
			"byteOffset":19104,
			"target":34963
		},
		{
			"buffer":0,
			"byteLength":5136,
			"byteOffset":20996,
			"target":34962
		},
		{
			"buffer":0,
			"byteLength":5136,
			"byteOffset":26132,
			"target":34962
		},
		{
			"buffer":0,
			"byteLength":3424,
			"byteOffset":31268,
			"target":34962
		},
		{
			"buffer":0,
			"byteLength":1308,
			"byteOffset":34692,
			"target":34963
		},
		{
			"buffer":0,
			"byteLength":6096,
			"byteOffset":36000,
			"target":34962
		},
		{
			"buffer":0,
			"byteLength":6096,
			"byteOffset":42096,
			"target":34962
		},
		{
			"buffer":0,
			"byteLength":4064,
			"byteOffset":48192,
			"target":34962
		},
		{
			"buffer":0,
			"byteLength":1572,
			"byteOffset":52256,
			"target":34963
		},
		{
			"buffer":0,
			"byteLength":15912,
			"byteOffset":53828,
			"target":34962
		},
		{
			"buffer":0,
			"byteLength":15912,
			"byteOffset":69740,
			"target":34962
		},
		{
			"buffer":0,
			"byteLength":10608,
			"byteOffset":85652,
			"target":34962
		},
		{
			"buffer":0,
			"byteLength":4476,
			"byteOffset":96260,
			"target":34963
		},
		{
			"buffer":0,
			"byteLength":9612,
			"byteOffset":100736,
			"target":34962
		},
		{
			"buffer":0,
			"byteLength":9612,
			"byteOffset":110348,
			"target":34962
		},
		{
			"buffer":0,
			"byteLength":6408,
			"byteOffset":119960,
			"target":34962
		},
		{
			"buffer":0,
			"byteLength":2490,
			"byteOffset":126368,
			"target":34963
		}
	],
	"buffers":[
		{
			"byteLength":128860,
			"uri":"cup.bin"
		}
	]
}
