{
	"asset":{
		"generator":"Khronos glTF Blender I/O v4.5.48",
		"version":"2.0"
	},
	"extensionsUsed":[
		"KHR_materials_specular"
	],
	"scene":0,
	"scenes":[
		{
			"name":"Scene",
			"nodes":[
				0
			]
		}
	],
	"nodes":[
		{
			"mesh":0,
			"name":"Cup",
			"translation":[
				0,
				2.25,
				0
			]
		}
	],
	"materials":[
		{
			"doubleSided":true,
			"extensions":{
				"KHR_materials_specular":{
					"specularFactor":0.4000000059604645
				}
			},
			"name":"Pixel_Color_0.156",
			"pbrMetallicRoughness":{
				"baseColorFactor":[
					0,
					0,
					0,
					1
				],
				"metallicFactor":0,
				"roughnessFactor":0.8500000238418579
			}
		},
		{
			"doubleSided":true,
			"extensions":{
				"KHR_materials_specular":{
					"specularFactor":0.4000000059604645
				}
			},
			"name":"Pixel_Color_1.156",
			"pbrMetallicRoughness":{
				"baseColorFactor":[
					0.01568627543747425,
					0.01568627543747425,
					0.0784313753247261,
					1
				],
				"metallicFactor":0,
				"roughnessFactor":0.8500000238418579
			}
		},
		{
			"doubleSided":true,
			"extensions":{
				"KHR_materials_specular":{
					"specularFactor":0.4000000059604645
				}
			},
			"name":"Pixel_Color_2.156",
			"pbrMetallicRoughness":{
				"baseColorFactor":[
					0.019607843831181526,
					0.019607843831181526,
					0.11764705926179886,
					1
				],
				"metallicFactor":0,
				"roughnessFactor":0.8500000238418579
			}
		},
		{
			"doubleSided":true,
			"extensions":{
				"KHR_materials_specular":{
					"specularFactor":0.4000000059604645
				}
			},
			"name":"Pixel_Color_3.156",
			"pbrMetallicRoughness":{
				"baseColorFactor":[
					0.03921568766236305,
					0.03921568766236305,
					0.1568627506494522,
					1
				],
				"metallicFactor":0,
				"roughnessFactor":0.8500000238418579
			}
		},
		{
			"doubleSided":true,
			"extensions":{
				"KHR_materials_specular":{
					"specularFactor":0.20000000298023224
				}
			},
			"name":"Cup_Inner_Orange.156",
			"pbrMetallicRoughness":{
				"baseColorFactor":[
					0.3921568691730499,
					0.007843137718737125,
					0.007843137718737125,
					1
				],
				"metallicFactor":0,
				"roughnessFactor":0.10000000149011612
			}
		}
	],
	"meshes":[
		{
			"name":"Cylinder.068",
			"primitives":[
				{
					"attributes":{
						"POSITION":0,
						"NORMAL":1,
						"TEXCOORD_0":2
					},
					"indices":3,
					"material":0
				},
				{
					"attributes":{
						"POSITION":4,
						"NORMAL":5,
						"TEXCOORD_0":6
					},
					"indices":7,
					"material":1
				},
				{
					"attributes":{
						"POSITION":8,
						"NORMAL":9,
						"TEXCOORD_0":10
					},
					"indices":11,
					"material":2
				},
				{
					"attributes":{
						"POSITION":12,
						"NORMAL":13,
						"TEXCOORD_0":14
					},
					"indices":15,
					"material":3
				},
				{
					"attributes":{
						"POSITION":16,
						"NORMAL":17,
						"TEXCOORD_0":18
					},
					"indices":19,
					"material":4
				}
			]
		}
	],
	"accessors":[
		{
			"bufferView":0,
			"componentType":5126,
			"count":725,
			"max":[
				3.9289262294769287,
				0.01888248883187771,
				3.925816774368286
			],
			"min":[
				-3.913856029510498,
				-2.2682743072509766,
				-3.924513816833496
			],
			"type":"VEC3"
		},
		{
			"bufferView":1,
			"componentType":5126,
			"count":725,
			"type":"VEC3"
		},
		{
			"bufferView":2,
			"componentType":5126,
			"count":725,
			"type":"VEC2"
		},
		{
			"bufferView":3,
			"componentType":5123,
			"count":1143,
			"type":"SCALAR"
		},
		{
			"bufferView":4,
			"componentType":5126,
			"count":364,
			"max":[
				3.9289262294769287,
				2.263779640197754,
				3.9258015155792236
			],
			"min":[
				-3.92629075050354,
				-2.266458749771118,
				-3.9291703701019287
			],
			"type":"VEC3"
		},
		{
			"bufferView":5,
			"componentType":5126,
			"count":364,
			"type":"VEC3"
		},
		{
			"bufferView":6,
			"componentType":5126,
			"count":364,
			"type":"VEC2"
		},
		{
			"bufferView":7,
			"componentType":5123,
			"count":570,
			"type":"SCALAR"
		},
		{
			"bufferView":8,
			"componentType":5126,
			"count":491,
			"max":[
				4.21444845199585,
				3.27207350730896,
				3.9197206497192383
			],
			"min":[
				-4.203525543212891,
				-1.143386960029602,
				-4.227669715881348
			],
			"type":"VEC3"
		},
		{
			"bufferView":9,
			"componentType":5126,
			"count":491,
			"type":"VEC3"
		},
		{
			"bufferView":10,
			"componentType":5126,
			"count":491,
			"type":"VEC2"
		},
		{
			"bufferView":11,
			"componentType":5123,
			"count":855,
			"type":"SCALAR"
		},
		{
			"bufferView":12,
			"componentType":5126,
			"count":1128,
			"max":[
				4.215426921844482,
				4.27363395690918,
				4.214910984039307
			],
			"min":[
				-4.23322868347168,
				-0.019271045923233032,
				-4.227669715881348
			],
			"type":"VEC3"
		},
		{
			"bufferView":13,
			"componentType":5126,
			"count":1128,
			"type":"VEC3"
		},
		{
			"bufferView":14,
			"componentType":5126,
			"count":1128,
			"type":"VEC2"
		},
		{
			"bufferView":15,
			"componentType":5123,
			"count":1962,
			"type":"SCALAR"
		},
		{
			"bufferView":16,
			"componentType":5126,
			"count":800,
			"max":[
				3.4751832485198975,
				4.269351005554199,
				3.474937915802002
			],
			"min":[
				-3.4726996421813965,
				-1.2670106887817383,
				-3.474745750427246
			],
			"type":"VEC3"
		},
		{
			"bufferView":17,
			"componentType":5126,
			"count":800,
			"type":"VEC3"
		},
		{
			"bufferView":18,
			"componentType":5126,
			"count":800,
			"type":"VEC2"
		},
		{
			"bufferView":19,
			"componentType":5123,
			"count":1242,
			"type":"SCALAR"
		}
	],
	"bufferViews":[
		{
			"buffer":0,
			"byteLength":8700,
			"byteOffset":0,
			"target":34962
		},
		{
			"buffer":0,
			"byteLength":8700,
			"byteOffset":8700,
			"target":34962
		},
		{
			"buffer":0,
			"byteLength":5800,
			"byteOffset":17400,
			"target":34962
		},
		{
			"buffer":0,
			"byteLength":2286,
			"byteOffset":23200,
			"target":34963
		},
		{
			"buffer":0,
			"byteLength":4368,
			"byteOffset":25488,
			"target":34962
		},
		{
			"buffer":0,
			"byteLength":4368,
			"byteOffset":29856,
			"target":34962
		},
		{
			"buffer":0,
			"byteLength":2912,
			"byteOffset":34224,
			"target":34962
		},
		{
			"buffer":0,
			"byteLength":1140,
			"byteOffset":37136,
			"target":34963
		},
		{
			"buffer":0,
			"byteLength":5892,
			"byteOffset":38276,
			"target":34962
		},
		{
			"buffer":0,
			"byteLength":5892,
			"byteOffset":44168,
			"target":34962
		},
		{
			"buffer":0,
			"byteLength":3928,
			"byteOffset":50060,
			"target":34962
		},
		{
			"buffer":0,
			"byteLength":1710,
			"byteOffset":53988,
			"target":34963
		},
		{
			"buffer":0,
			"byteLength":13536,
			"byteOffset":55700,
			"target":34962
		},
		{
			"buffer":0,
			"byteLength":13536,
			"byteOffset":69236,
			"target":34962
		},
		{
			"buffer":0,
			"byteLength":9024,
			"byteOffset":82772,
			"target":34962
		},
		{
			"buffer":0,
			"byteLength":3924,
			"byteOffset":91796,
			"target":34963
		},
		{
			"buffer":0,
			"byteLength":9600,
			"byteOffset":95720,
			"target":34962
		},
		{
			"buffer":0,
			"byteLength":9600,
			"byteOffset":105320,
			"target":34962
		},
		{
			"buffer":0,
			"byteLength":6400,
			"byteOffset":114920,
			"target":34962
		},
		{
			"buffer":0,
			"byteLength":2484,
			"byteOffset":121320,
			"target":34963
		}
	],
	"buffers":[
		{
			"byteLength":123804,
			"uri":"cup.bin"
		}
	]
}
