{
	"asset":{
		"generator":"Khronos glTF Blender I/O v4.5.48",
		"version":"2.0"
	},
	"scene":0,
	"scenes":[
		{
			"name":"Scene",
			"nodes":[
				0
			]
		}
	],
	"nodes":[
		{
			"mesh":0,
			"name":"D6_Dice_Green"
		}
	],
	"materials":[
		{
			"doubleSided":true,
			"name":"Dice_Body_Green.013",
			"pbrMetallicRoughness":{
				"baseColorFactor":[
					0,
					1,
					0,
					1
				],
				"metallicFactor":0.10000000149011612,
				"roughnessFactor":0.30000001192092896
			}
		},
		{
			"doubleSided":true,
			"name":"Pip_Material_Green.013",
			"pbrMetallicRoughness":{
				"baseColorFactor":[
					0,
					0,
					0,
					1
				],
				"metallicFactor":0,
				"roughnessFactor":0.4000000059604645
			}
		}
	],
	"meshes":[
		{
			"name":"Cube.2456",
			"primitives":[
				{
					"attributes":{
						"POSITION":0,
						"NORMAL":1,
						"TEXCOORD_0":2
					},
					"indices":3,
					"material":0
				},
				{
					"attributes":{
						"POSITION":4,
						"NORMAL":5,
						"TEXCOORD_0":6
					},
					"indices":7,
					"material":1
				}
			]
		}
	],
	"accessors":[
		{
			"bufferView":0,
			"componentType":5126,
			"count":1042,
			"max":[
				1.0057268142700195,
				1.0083861351013184,
				1.0079374313354492
			],
			"min":[
				-1.0057268142700195,
				-1.0083861351013184,
				-1.0079374313354492
			],
			"type":"VEC3"
		},
		{
			"bufferView":1,
			"componentType":5126,
			"count":1042,
			"type":"VEC3"
		},
		{
			"bufferView":2,
			"componentType":5126,
			"count":1042,
			"type":"VEC2"
		},
		{
			"bufferView":3,
			"componentType":5123,
			"count":1830,
			"type":"SCALAR"
		},
		{
			"bufferView":4,
			"componentType":5126,
			"count":2016,
			"max":[
				0.989875853061676,
				0.9922695755958557,
				0.9891464710235596
			],
			"min":[
				-0.9906339049339294,
				-0.9895439147949219,
				-0.9915643334388733
			],
			"type":"VEC3"
		},
		{
			"bufferView":5,
			"componentType":5126,
			"count":2016,
			"type":"VEC3"
		},
		{
			"bufferView":6,
			"componentType":5126,
			"count":2016,
			"type":"VEC2"
		},
		{
			"bufferView":7,
			"componentType":5123,
			"count":3024,
			"type":"SCALAR"
		}
	],
	"bufferViews":[
		{
			"buffer":0,
			"byteLength":12504,
			"byteOffset":0,
			"target":34962
		},
		{
			"buffer":0,
			"byteLength":12504,
			"byteOffset":12504,
			"target":34962
		},
		{
			"buffer":0,
			"byteLength":8336,
			"byteOffset":25008,
			"target":34962
		},
		{
			"buffer":0,
			"byteLength":3660,
			"byteOffset":33344,
			"target":34963
		},
		{
			"buffer":0,
			"byteLength":24192,
			"byteOffset":37004,
			"target":34962
		},
		{
			"buffer":0,
			"byteLength":24192,
			"byteOffset":61196,
			"target":34962
		},
		{
			"buffer":0,
			"byteLength":16128,
			"byteOffset":85388,
			"target":34962
		},
		{
			"buffer":0,
			"byteLength":6048,
			"byteOffset":101516,
			"target":34963
		}
	],
	"buffers":[
		{
			"byteLength":107564,
			"uri":"dice_green.bin"
		}
	]
}
