{
	"asset":{
		"generator":"Khronos glTF Blender I/O v4.5.48",
		"version":"2.0"
	},
	"scene":0,
	"scenes":[
		{
			"name":"Scene",
			"nodes":[
				0
			]
		}
	],
	"nodes":[
		{
			"mesh":0,
			"name":"D6_Dice_Blue",
			"translation":[
				6,
				0,
				0
			]
		}
	],
	"materials":[
		{
			"doubleSided":true,
			"name":"Dice_Body_Blue.004",
			"pbrMetallicRoughness":{
				"baseColorFactor":[
					0,
					0,
					1,
					1
				],
				"metallicFactor":0.10000000149011612,
				"roughnessFactor":0.30000001192092896
			}
		},
		{
			"doubleSided":true,
			"name":"Pip_Material_Blue.004",
			"pbrMetallicRoughness":{
				"baseColorFactor":[
					0,
					0,
					0,
					1
				],
				"metallicFactor":0,
				"roughnessFactor":0.4000000059604645
			}
		}
	],
	"meshes":[
		{
			"name":"Cube.258",
			"primitives":[
				{
					"attributes":{
						"POSITION":0,
						"NORMAL":1,
						"TEXCOORD_0":2
					},
					"indices":3,
					"material":0
				},
				{
					"attributes":{
						"POSITION":4,
						"NORMAL":5,
						"TEXCOORD_0":6
					},
					"indices":7,
					"material":1
				}
			]
		}
	],
	"accessors":[
		{
			"bufferView":0,
			"componentType":5126,
			"count":7106,
			"max":[
				1.0155788660049438,
				1.0156153440475464,
				1.0161620378494263
			],
			"min":[
				-1.0145846605300903,
				-1.0141037702560425,
				-1.0185093879699707
			],
			"type":"VEC3"
		},
		{
			"bufferView":1,
			"componentType":5126,
			"count":7106,
			"type":"VEC3"
		},
		{
			"bufferView":2,
			"componentType":5126,
			"count":7106,
			"type":"VEC2"
		},
		{
			"bufferView":3,
			"componentType":5123,
			"count":12102,
			"type":"SCALAR"
		},
		{
			"bufferView":4,
			"componentType":5126,
			"count":8064,
			"max":[
				0.9999370574951172,
				0.9972258806228638,
				1.0012869834899902
			],
			"min":[
				-1.0004886388778687,
				-1.001594066619873,
				-1.0002355575561523
			],
			"type":"VEC3"
		},
		{
			"bufferView":5,
			"componentType":5126,
			"count":8064,
			"type":"VEC3"
		},
		{
			"bufferView":6,
			"componentType":5126,
			"count":8064,
			"type":"VEC2"
		},
		{
			"bufferView":7,
			"componentType":5123,
			"count":12096,
			"type":"SCALAR"
		}
	],
	"bufferViews":[
		{
			"buffer":0,
			"byteLength":85272,
			"byteOffset":0,
			"target":34962
		},
		{
			"buffer":0,
			"byteLength":85272,
			"byteOffset":85272,
			"target":34962
		},
		{
			"buffer":0,
			"byteLength":56848,
			"byteOffset":170544,
			"target":34962
		},
		{
			"buffer":0,
			"byteLength":24204,
			"byteOffset":227392,
			"target":34963
		},
		{
			"buffer":0,
			"byteLength":96768,
			"byteOffset":251596,
			"target":34962
		},
		{
			"buffer":0,
			"byteLength":96768,
			"byteOffset":348364,
			"target":34962
		},
		{
			"buffer":0,
			"byteLength":64512,
			"byteOffset":445132,
			"target":34962
		},
		{
			"buffer":0,
			"byteLength":24192,
			"byteOffset":509644,
			"target":34963
		}
	],
	"buffers":[
		{
			"byteLength":533836,
			"uri":"dice_blue.bin"
		}
	]
}
