{
	"asset":{
		"generator":"Khronos glTF Blender I/O v4.5.48",
		"version":"2.0"
	},
	"scene":0,
	"scenes":[
		{
			"name":"Scene",
			"nodes":[
				0
			]
		}
	],
	"nodes":[
		{
			"mesh":0,
			"name":"D6_Dice_Red"
		}
	],
	"materials":[
		{
			"doubleSided":true,
			"name":"Dice_Body_Red.004",
			"pbrMetallicRoughness":{
				"baseColorFactor":[
					1,
					0,
					0,
					1
				],
				"metallicFactor":0.10000000149011612,
				"roughnessFactor":0.30000001192092896
			}
		},
		{
			"doubleSided":true,
			"name":"Pip_Material_Red.004",
			"pbrMetallicRoughness":{
				"baseColorFactor":[
					0,
					0,
					0,
					1
				],
				"metallicFactor":0,
				"roughnessFactor":0.4000000059604645
			}
		}
	],
	"meshes":[
		{
			"name":"Cube.215",
			"primitives":[
				{
					"attributes":{
						"POSITION":0,
						"NORMAL":1,
						"TEXCOORD_0":2
					},
					"indices":3,
					"material":0
				},
				{
					"attributes":{
						"POSITION":4,
						"NORMAL":5,
						"TEXCOORD_0":6
					},
					"indices":7,
					"material":1
				}
			]
		}
	],
	"accessors":[
		{
			"bufferView":0,
			"componentType":5126,
			"count":6720,
			"max":[
				1.0171446800231934,
				1.0184733867645264,
				1.0172604322433472
			],
			"min":[
				-1.014807105064392,
				-1.0137773752212524,
				-1.017059326171875
			],
			"type":"VEC3"
		},
		{
			"bufferView":1,
			"componentType":5126,
			"count":6720,
			"type":"VEC3"
		},
		{
			"bufferView":2,
			"componentType":5126,
			"count":6720,
			"type":"VEC2"
		},
		{
			"bufferView":3,
			"componentType":5123,
			"count":11322,
			"type":"SCALAR"
		},
		{
			"bufferView":4,
			"componentType":5126,
			"count":8064,
			"max":[
				0.9985634088516235,
				0.9921531081199646,
				0.997880756855011
			],
			"min":[
				-1.0002819299697876,
				-1.0011897087097168,
				-0.9985988140106201
			],
			"type":"VEC3"
		},
		{
			"bufferView":5,
			"componentType":5126,
			"count":8064,
			"type":"VEC3"
		},
		{
			"bufferView":6,
			"componentType":5126,
			"count":8064,
			"type":"VEC2"
		},
		{
			"bufferView":7,
			"componentType":5123,
			"count":12096,
			"type":"SCALAR"
		}
	],
	"bufferViews":[
		{
			"buffer":0,
			"byteLength":80640,
			"byteOffset":0,
			"target":34962
		},
		{
			"buffer":0,
			"byteLength":80640,
			"byteOffset":80640,
			"target":34962
		},
		{
			"buffer":0,
			"byteLength":53760,
			"byteOffset":161280,
			"target":34962
		},
		{
			"buffer":0,
			"byteLength":22644,
			"byteOffset":215040,
			"target":34963
		},
		{
			"buffer":0,
			"byteLength":96768,
			"byteOffset":237684,
			"target":34962
		},
		{
			"buffer":0,
			"byteLength":96768,
			"byteOffset":334452,
			"target":34962
		},
		{
			"buffer":0,
			"byteLength":64512,
			"byteOffset":431220,
			"target":34962
		},
		{
			"buffer":0,
			"byteLength":24192,
			"byteOffset":495732,
			"target":34963
		}
	],
	"buffers":[
		{
			"byteLength":519924,
			"uri":"dice_red.bin"
		}
	]
}
