{
	"asset":{
		"generator":"Khronos glTF Blender I/O v4.5.48",
		"version":"2.0"
	},
	"scene":0,
	"scenes":[
		{
			"name":"Scene",
			"nodes":[
				0
			]
		}
	],
	"nodes":[
		{
			"mesh":0,
			"name":"D6_Dice_Black",
			"translation":[
				24,
				0,
				0
			]
		}
	],
	"materials":[
		{
			"doubleSided":true,
			"name":"Dice_Body_Black.004",
			"pbrMetallicRoughness":{
				"baseColorFactor":[
					0.10000000149011612,
					0.10000000149011612,
					0.10000000149011612,
					1
				],
				"metallicFactor":0.10000000149011612,
				"roughnessFactor":0.30000001192092896
			}
		},
		{
			"doubleSided":true,
			"name":"Pip_Material_Black.004",
			"pbrMetallicRoughness":{
				"metallicFactor":0,
				"roughnessFactor":0.4000000059604645
			}
		}
	],
	"meshes":[
		{
			"name":"Cube.387",
			"primitives":[
				{
					"attributes":{
						"POSITION":0,
						"NORMAL":1,
						"TEXCOORD_0":2
					},
					"indices":3,
					"material":0
				},
				{
					"attributes":{
						"POSITION":4,
						"NORMAL":5,
						"TEXCOORD_0":6
					},
					"indices":7,
					"material":1
				}
			]
		}
	],
	"accessors":[
		{
			"bufferView":0,
			"componentType":5126,
			"count":7118,
			"max":[
				1.0146970748901367,
				1.016342282295227,
				1.016221046447754
			],
			"min":[
				-1.0150749683380127,
				-1.0173754692077637,
				-1.0178791284561157
			],
			"type":"VEC3"
		},
		{
			"bufferView":1,
			"componentType":5126,
			"count":7118,
			"type":"VEC3"
		},
		{
			"bufferView":2,
			"componentType":5126,
			"count":7118,
			"type":"VEC2"
		},
		{
			"bufferView":3,
			"componentType":5123,
			"count":12138,
			"type":"SCALAR"
		},
		{
			"bufferView":4,
			"componentType":5126,
			"count":8064,
			"max":[
				0.9972827434539795,
				0.9958571195602417,
				1.0003511905670166
			],
			"min":[
				-1.0004394054412842,
				-1.001124382019043,
				-0.9986749887466431
			],
			"type":"VEC3"
		},
		{
			"bufferView":5,
			"componentType":5126,
			"count":8064,
			"type":"VEC3"
		},
		{
			"bufferView":6,
			"componentType":5126,
			"count":8064,
			"type":"VEC2"
		},
		{
			"bufferView":7,
			"componentType":5123,
			"count":12096,
			"type":"SCALAR"
		}
	],
	"bufferViews":[
		{
			"buffer":0,
			"byteLength":85416,
			"byteOffset":0,
			"target":34962
		},
		{
			"buffer":0,
			"byteLength":85416,
			"byteOffset":85416,
			"target":34962
		},
		{
			"buffer":0,
			"byteLength":56944,
			"byteOffset":170832,
			"target":34962
		},
		{
			"buffer":0,
			"byteLength":24276,
			"byteOffset":227776,
			"target":34963
		},
		{
			"buffer":0,
			"byteLength":96768,
			"byteOffset":252052,
			"target":34962
		},
		{
			"buffer":0,
			"byteLength":96768,
			"byteOffset":348820,
			"target":34962
		},
		{
			"buffer":0,
			"byteLength":64512,
			"byteOffset":445588,
			"target":34962
		},
		{
			"buffer":0,
			"byteLength":24192,
			"byteOffset":510100,
			"target":34963
		}
	],
	"buffers":[
		{
			"byteLength":534292,
			"uri":"dice_black.bin"
		}
	]
}
