{
	"asset":{
		"generator":"Khronos glTF Blender I/O v4.5.48",
		"version":"2.0"
	},
	"scene":0,
	"scenes":[
		{
			"name":"Scene",
			"nodes":[
				0
			]
		}
	],
	"nodes":[
		{
			"mesh":0,
			"name":"D6_Dice_Green"
		}
	],
	"materials":[
		{
			"doubleSided":true,
			"name":"Dice_Body_Green.004",
			"pbrMetallicRoughness":{
				"baseColorFactor":[
					0,
					1,
					0,
					1
				],
				"metallicFactor":0.10000000149011612,
				"roughnessFactor":0.30000001192092896
			}
		},
		{
			"doubleSided":true,
			"name":"Pip_Material_Green.004",
			"pbrMetallicRoughness":{
				"baseColorFactor":[
					0,
					0,
					0,
					1
				],
				"metallicFactor":0,
				"roughnessFactor":0.4000000059604645
			}
		}
	],
	"meshes":[
		{
			"name":"Cube.301",
			"primitives":[
				{
					"attributes":{
						"POSITION":0,
						"NORMAL":1,
						"TEXCOORD_0":2
					},
					"indices":3,
					"material":0
				},
				{
					"attributes":{
						"POSITION":4,
						"NORMAL":5,
						"TEXCOORD_0":6
					},
					"indices":7,
					"material":1
				}
			]
		}
	],
	"accessors":[
		{
			"bufferView":0,
			"componentType":5126,
			"count":7130,
			"max":[
				1.0145102739334106,
				1.0160032510757446,
				1.0160170793533325
			],
			"min":[
				-1.0158532857894897,
				-1.0136973857879639,
				-1.0163546800613403
			],
			"type":"VEC3"
		},
		{
			"bufferView":1,
			"componentType":5126,
			"count":7130,
			"type":"VEC3"
		},
		{
			"bufferView":2,
			"componentType":5126,
			"count":7130,
			"type":"VEC2"
		},
		{
			"bufferView":3,
			"componentType":5123,
			"count":12204,
			"type":"SCALAR"
		},
		{
			"bufferView":4,
			"componentType":5126,
			"count":8064,
			"max":[
				0.997983992099762,
				0.9995843172073364,
				1.0000057220458984
			],
			"min":[
				-1.0016416311264038,
				-1.0017073154449463,
				-1.0010521411895752
			],
			"type":"VEC3"
		},
		{
			"bufferView":5,
			"componentType":5126,
			"count":8064,
			"type":"VEC3"
		},
		{
			"bufferView":6,
			"componentType":5126,
			"count":8064,
			"type":"VEC2"
		},
		{
			"bufferView":7,
			"componentType":5123,
			"count":12096,
			"type":"SCALAR"
		}
	],
	"bufferViews":[
		{
			"buffer":0,
			"byteLength":85560,
			"byteOffset":0,
			"target":34962
		},
		{
			"buffer":0,
			"byteLength":85560,
			"byteOffset":85560,
			"target":34962
		},
		{
			"buffer":0,
			"byteLength":57040,
			"byteOffset":171120,
			"target":34962
		},
		{
			"buffer":0,
			"byteLength":24408,
			"byteOffset":228160,
			"target":34963
		},
		{
			"buffer":0,
			"byteLength":96768,
			"byteOffset":252568,
			"target":34962
		},
		{
			"buffer":0,
			"byteLength":96768,
			"byteOffset":349336,
			"target":34962
		},
		{
			"buffer":0,
			"byteLength":64512,
			"byteOffset":446104,
			"target":34962
		},
		{
			"buffer":0,
			"byteLength":24192,
			"byteOffset":510616,
			"target":34963
		}
	],
	"buffers":[
		{
			"byteLength":534808,
			"uri":"dice_green.bin"
		}
	]
}
