{
	"asset":{
		"generator":"Khronos glTF Blender I/O v4.5.48",
		"version":"2.0"
	},
	"scene":0,
	"scenes":[
		{
			"name":"Scene",
			"nodes":[
				0
			]
		}
	],
	"nodes":[
		{
			"mesh":0,
			"name":"D6_Dice_White"
		}
	],
	"materials":[
		{
			"doubleSided":true,
			"name":"Dice_Body_White.004",
			"pbrMetallicRoughness":{
				"metallicFactor":0.10000000149011612,
				"roughnessFactor":0.30000001192092896
			}
		},
		{
			"doubleSided":true,
			"name":"Pip_Material_White.004",
			"pbrMetallicRoughness":{
				"baseColorFactor":[
					0,
					0,
					0,
					1
				],
				"metallicFactor":0,
				"roughnessFactor":0.4000000059604645
			}
		}
	],
	"meshes":[
		{
			"name":"Cube.344",
			"primitives":[
				{
					"attributes":{
						"POSITION":0,
						"NORMAL":1,
						"TEXCOORD_0":2
					},
					"indices":3,
					"material":0
				},
				{
					"attributes":{
						"POSITION":4,
						"NORMAL":5,
						"TEXCOORD_0":6
					},
					"indices":7,
					"material":1
				}
			]
		}
	],
	"accessors":[
		{
			"bufferView":0,
			"componentType":5126,
			"count":7156,
			"max":[
				1.014697790145874,
				1.0158699750900269,
				1.0196881294250488
			],
			"min":[
				-1.0141923427581787,
				-1.0181905031204224,
				-1.0167608261108398
			],
			"type":"VEC3"
		},
		{
			"bufferView":1,
			"componentType":5126,
			"count":7156,
			"type":"VEC3"
		},
		{
			"bufferView":2,
			"componentType":5126,
			"count":7156,
			"type":"VEC2"
		},
		{
			"bufferView":3,
			"componentType":5123,
			"count":12216,
			"type":"SCALAR"
		},
		{
			"bufferView":4,
			"componentType":5126,
			"count":8064,
			"max":[
				0.9944002628326416,
				0.9981606006622314,
				1.0013498067855835
			],
			"min":[
				-0.9995585680007935,
				-1.0013995170593262,
				-0.99897700548172
			],
			"type":"VEC3"
		},
		{
			"bufferView":5,
			"componentType":5126,
			"count":8064,
			"type":"VEC3"
		},
		{
			"bufferView":6,
			"componentType":5126,
			"count":8064,
			"type":"VEC2"
		},
		{
			"bufferView":7,
			"componentType":5123,
			"count":12096,
			"type":"SCALAR"
		}
	],
	"bufferViews":[
		{
			"buffer":0,
			"byteLength":85872,
			"byteOffset":0,
			"target":34962
		},
		{
			"buffer":0,
			"byteLength":85872,
			"byteOffset":85872,
			"target":34962
		},
		{
			"buffer":0,
			"byteLength":57248,
			"byteOffset":171744,
			"target":34962
		},
		{
			"buffer":0,
			"byteLength":24432,
			"byteOffset":228992,
			"target":34963
		},
		{
			"buffer":0,
			"byteLength":96768,
			"byteOffset":253424,
			"target":34962
		},
		{
			"buffer":0,
			"byteLength":96768,
			"byteOffset":350192,
			"target":34962
		},
		{
			"buffer":0,
			"byteLength":64512,
			"byteOffset":446960,
			"target":34962
		},
		{
			"buffer":0,
			"byteLength":24192,
			"byteOffset":511472,
			"target":34963
		}
	],
	"buffers":[
		{
			"byteLength":535664,
			"uri":"dice_white.bin"
		}
	]
}
