{
	"asset":{
		"generator":"Khronos glTF Blender I/O v4.5.48",
		"version":"2.0"
	},
	"scene":0,
	"scenes":[
		{
			"name":"Scene",
			"nodes":[
				0
			]
		}
	],
	"nodes":[
		{
			"mesh":0,
			"name":"Prism_Dice"
		}
	],
	"materials":[
		{
			"doubleSided":true,
			"name":"Prism_Body_Material",
			"pbrMetallicRoughness":{
				"baseColorFactor":[
					0.699999988079071,
					0.699999988079071,
					0.8999999761581421,
					1
				],
				"metallicFactor":0.10000000149011612,
				"roughnessFactor":0.30000001192092896
			}
		},
		{
			"doubleSided":true,
			"name":"Pip_Material",
			"pbrMetallicRoughness":{
				"metallicFactor":0,
				"roughnessFactor":0.4000000059604645
			}
		}
	],
	"meshes":[
		{
			"name":"Cylinder",
			"primitives":[
				{
					"attributes":{
						"POSITION":0,
						"NORMAL":1,
						"TEXCOORD_0":2
					},
					"indices":3,
					"material":0
				},
				{
					"attributes":{
						"POSITION":4,
						"NORMAL":5,
						"TEXCOORD_0":6
					},
					"indices":7,
					"material":1
				}
			]
		}
	],
	"accessors":[
		{
			"bufferView":0,
			"componentType":5126,
			"count":144,
			"max":[
				0.8683731555938721,
				1.001291036605835,
				0.9714720249176025
			],
			"min":[
				-0.8680037260055542,
				-1.001291036605835,
				-0.9714720249176025
			],
			"type":"VEC3"
		},
		{
			"bufferView":1,
			"componentType":5126,
			"count":144,
			"type":"VEC3"
		},
		{
			"bufferView":2,
			"componentType":5126,
			"count":144,
			"type":"VEC2"
		},
		{
			"bufferView":3,
			"componentType":5123,
			"count":204,
			"type":"SCALAR"
		},
		{
			"bufferView":4,
			"componentType":5126,
			"count":504,
			"max":[
				0.9724999666213989,
				0.5133116245269775,
				0.8976147174835205
			],
			"min":[
				-0.9724999666213989,
				-0.5116883516311646,
				-0.8993047475814819
			],
			"type":"VEC3"
		},
		{
			"bufferView":5,
			"componentType":5126,
			"count":504,
			"type":"VEC3"
		},
		{
			"bufferView":6,
			"componentType":5126,
			"count":504,
			"type":"VEC2"
		},
		{
			"bufferView":7,
			"componentType":5123,
			"count":756,
			"type":"SCALAR"
		}
	],
	"bufferViews":[
		{
			"buffer":0,
			"byteLength":1728,
			"byteOffset":0,
			"target":34962
		},
		{
			"buffer":0,
			"byteLength":1728,
			"byteOffset":1728,
			"target":34962
		},
		{
			"buffer":0,
			"byteLength":1152,
			"byteOffset":3456,
			"target":34962
		},
		{
			"buffer":0,
			"byteLength":408,
			"byteOffset":4608,
			"target":34963
		},
		{
			"buffer":0,
			"byteLength":6048,
			"byteOffset":5016,
			"target":34962
		},
		{
			"buffer":0,
			"byteLength":6048,
			"byteOffset":11064,
			"target":34962
		},
		{
			"buffer":0,
			"byteLength":4032,
			"byteOffset":17112,
			"target":34962
		},
		{
			"buffer":0,
			"byteLength":1512,
			"byteOffset":21144,
			"target":34963
		}
	],
	"buffers":[
		{
			"byteLength":22656,
			"uri":"prism_dice.bin"
		}
	]
}
